<svg xmlns="http://www.w3.org/2000/svg" xmlns:xlink="http://www.w3.org/1999/xlink" width="122" height="104.571" viewBox="0 0 122 104.571">
  <defs>
    <linearGradient id="linear-gradient" x1="0.5" x2="0.5" y2="1" gradientUnits="objectBoundingBox">
      <stop offset="0" stop-color="#41a8de"/>
      <stop offset="1" stop-color="#007fff"/>
    </linearGradient>
  </defs>
  <g id="Group_19941" data-name="Group 19941" transform="translate(-899 -3713.715)">
    <path id="blob_3_" data-name="blob (3)" d="M91.6,19.514c0,26.143-39.286,61.857-69.857,61.857C-8.686,81.371-30.4,45.657-30.4,19.514S-8.686-23.2,21.743-23.2C52.314-23.2,91.6-6.629,91.6,19.514Z" transform="translate(929.4 3736.915)" fill="url(#linear-gradient)"/>
    <g id="svgexport-6_-_2022-03-06T162235.936" data-name="svgexport-6 - 2022-03-06T162235.936" transform="translate(924.814 3727.9)">
      <g id="Group_17081" data-name="Group 17081" transform="translate(0 0)">
        <path id="Path_37497" data-name="Path 37497" d="M64.253,62.884c-.555.007-.494-.02-1.232.031V45.653A3.354,3.354,0,0,0,59.67,42.3H41.457v-26l7.989,7.722a2.342,2.342,0,0,1,.711,1.675v12.74a1.041,1.041,0,0,0,2.083,0V25.694a4.435,4.435,0,0,0-1.346-3.172L41.14,13.093a1.063,1.063,0,0,0-1.056-.238l-17.5,5.882V14.682a3.27,3.27,0,0,0-3.425-3.206,3.21,3.21,0,0,0-3.207,3.206v6.284l-4.578,1.539a4.409,4.409,0,0,0-3.007,4.182v36.2A8.6,8.6,0,0,0,0,71.475v5.3a2.61,2.61,0,0,0,2.607,2.607H68.485a2.61,2.61,0,0,0,2.607-2.607V69.724A6.847,6.847,0,0,0,64.253,62.884Zm0,2.083a4.762,4.762,0,0,1,4.757,4.757v1.092h-10.1V69.724A4.852,4.852,0,0,1,64.253,64.967ZM60.938,45.653v17.8a6.849,6.849,0,0,0-4.113,6.271v1.092H41.457V44.385H59.67a1.269,1.269,0,0,1,1.268,1.268Zm-42.9-30.971a1.125,1.125,0,0,1,1.125-1.123A1.218,1.218,0,0,1,20.5,14.682v4.755l-2.467.829ZM8.368,64.971v5.846H2.116A6.518,6.518,0,0,1,8.368,64.971ZM2.083,76.77V72.9H8.368v4.4H2.607a.525.525,0,0,1-.524-.524Zm8.368-50.083a2.328,2.328,0,0,1,1.587-2.208l27.336-9.189v5.674L16.662,28.6a1.041,1.041,0,1,0,.664,1.974l22.049-7.411v5.3L16.662,36.095a1.041,1.041,0,1,0,.664,1.974l22.049-7.411v5.3L16.662,43.59a1.041,1.041,0,1,0,.664,1.974l22.049-7.411V43.34s0,0,0,0v.107L16.662,51.085a1.041,1.041,0,1,0,.664,1.974l22.048-7.411v5.3L25.192,55.713a1.041,1.041,0,1,0,.664,1.974l13.518-4.544V77.295h-9V66.473a2.248,2.248,0,0,0-2.853-2.166l-9.693,2.706a2.578,2.578,0,0,0-1.879,2.475v7.806h-5.5Zm7.585,42.8a.489.489,0,0,1,.356-.469l3.732-1.042v9.317H18.036V69.489Zm6.171,7.806V67.4l3.878-1.083a.166.166,0,0,1,.21.16V77.295Zm17.251,0V72.9H56.825v4.4ZM69.01,76.77a.525.525,0,0,1-.524.524H58.908V72.9h10.1Z" transform="translate(0 -11.471)" fill="#fff"/>
        <path id="Path_37498" data-name="Path 37498" d="M115.93,344.379a1.039,1.039,0,0,0,.332-.055l3.866-1.3a1.041,1.041,0,1,0-.664-1.974l-3.866,1.3a1.042,1.042,0,0,0,.332,2.029Z" transform="translate(-98.936 -295.241)" fill="#fff"/>
        <path id="Path_37499" data-name="Path 37499" d="M320.525,273.048h10.213a1.758,1.758,0,0,0,1.756-1.756v-2.507a1.758,1.758,0,0,0-1.756-1.756H320.525a1.758,1.758,0,0,0-1.756,1.756v2.507A1.758,1.758,0,0,0,320.525,273.048Zm.327-3.936h9.56v1.854h-9.56Z" transform="translate(-274.507 -231.544)" fill="#fff"/>
        <path id="Path_37500" data-name="Path 37500" d="M320.525,330.078h10.213a1.758,1.758,0,0,0,1.756-1.756v-2.507a1.758,1.758,0,0,0-1.756-1.756H320.525a1.758,1.758,0,0,0-1.756,1.756v2.507A1.758,1.758,0,0,0,320.525,330.078Zm.327-3.936h9.56V328h-9.56Z" transform="translate(-274.507 -280.656)" fill="#fff"/>
        <path id="Path_37501" data-name="Path 37501" d="M320.525,387.691H323.9a1.758,1.758,0,0,0,1.756-1.756v-2.507a1.758,1.758,0,0,0-1.756-1.756h-3.378a1.758,1.758,0,0,0-1.756,1.756v2.507A1.758,1.758,0,0,0,320.525,387.691Zm.327-3.936h2.725v1.854h-2.725Z" transform="translate(-274.507 -330.269)" fill="#fff"/>
      </g>
    </g>
  </g>
</svg>
