<svg xmlns="http://www.w3.org/2000/svg" width="121.999" height="213.959" viewBox="0 0 121.999 213.959">
  <g id="Group_16929" data-name="Group 16929" transform="translate(0.248 -2388.788)" opacity="0.09">
    <path id="Path_34979" data-name="Path 34979" d="M9.112,4.556A4.556,4.556,0,1,1,4.556,0,4.556,4.556,0,0,1,9.112,4.556Z" transform="matrix(0.017, -1, 1, 0.017, 110.903, 2545.692)" fill="#087ad7"/>
    <path id="Path_34980" data-name="Path 34980" d="M9.112,4.556A4.556,4.556,0,1,1,4.556,0,4.556,4.556,0,0,1,9.112,4.556Z" transform="matrix(0.017, -1, 1, 0.017, 111.412, 2516.522)" fill="#087ad7"/>
    <path id="Path_34981" data-name="Path 34981" d="M9.112,4.556A4.556,4.556,0,1,1,4.556,0,4.556,4.556,0,0,1,9.112,4.556Z" transform="matrix(0.017, -1, 1, 0.017, 111.92, 2487.454)" fill="#087ad7"/>
    <path id="Path_34982" data-name="Path 34982" d="M9.163,4.556A4.581,4.581,0,1,1,4.581,0,4.582,4.582,0,0,1,9.163,4.556Z" transform="matrix(0.017, -1, 1, 0.017, 112.43, 2458.21)" fill="#087ad7"/>
    <path id="Path_34983" data-name="Path 34983" d="M9.112,4.556A4.556,4.556,0,1,1,4.556,0,4.556,4.556,0,0,1,9.112,4.556Z" transform="matrix(0.017, -1, 1, 0.017, 82.936, 2574.382)" fill="#087ad7"/>
    <path id="Path_34984" data-name="Path 34984" d="M9.112,4.556A4.556,4.556,0,1,1,4.556,0,4.556,4.556,0,0,1,9.112,4.556Z" transform="matrix(0.017, -1, 1, 0.017, 83.445, 2545.212)" fill="#087ad7"/>
    <path id="Path_34985" data-name="Path 34985" d="M9.112,4.556A4.556,4.556,0,1,1,4.556,0,4.556,4.556,0,0,1,9.112,4.556Z" transform="matrix(0.017, -1, 1, 0.017, 83.954, 2516.043)" fill="#087ad7"/>
    <path id="Path_34986" data-name="Path 34986" d="M9.112,4.556A4.556,4.556,0,1,1,4.556,0,4.556,4.556,0,0,1,9.112,4.556Z" transform="matrix(0.017, -1, 1, 0.017, 84.462, 2486.975)" fill="#087ad7"/>
    <path id="Path_34987" data-name="Path 34987" d="M9.163,4.556A4.581,4.581,0,1,1,4.581,0,4.581,4.581,0,0,1,9.163,4.556Z" transform="matrix(0.017, -1, 1, 0.017, 84.972, 2457.73)" fill="#087ad7"/>
    <path id="Path_34988" data-name="Path 34988" d="M9.163,4.556A4.581,4.581,0,1,1,4.607,0,4.581,4.581,0,0,1,9.163,4.556Z" transform="matrix(0.017, -1, 1, 0.017, 85.481, 2428.561)" fill="#087ad7"/>
    <path id="Path_34989" data-name="Path 34989" d="M9.112,4.556A4.556,4.556,0,1,1,4.556,0,4.556,4.556,0,0,1,9.112,4.556Z" transform="matrix(0.017, -1, 1, 0.017, 55.252, 2573.898)" fill="#087ad7"/>
    <path id="Path_34990" data-name="Path 34990" d="M9.112,4.556A4.556,4.556,0,1,1,4.556,0,4.556,4.556,0,0,1,9.112,4.556Z" transform="matrix(0.017, -1, 1, 0.017, 55.761, 2544.729)" fill="#087ad7"/>
    <path id="Path_34991" data-name="Path 34991" d="M9.112,4.556A4.556,4.556,0,1,1,4.556,0,4.556,4.556,0,0,1,9.112,4.556Z" transform="matrix(0.017, -1, 1, 0.017, 56.27, 2515.56)" fill="#087ad7"/>
    <path id="Path_34992" data-name="Path 34992" d="M9.112,4.556A4.556,4.556,0,1,1,4.556,0,4.556,4.556,0,0,1,9.112,4.556Z" transform="matrix(0.017, -1, 1, 0.017, 56.778, 2486.492)" fill="#087ad7"/>
    <path id="Path_34993" data-name="Path 34993" d="M9.163,4.556A4.581,4.581,0,1,1,4.581,0,4.582,4.582,0,0,1,9.163,4.556Z" transform="matrix(0.017, -1, 1, 0.017, 57.288, 2457.247)" fill="#087ad7"/>
    <path id="Path_34994" data-name="Path 34994" d="M9.163,4.556A4.581,4.581,0,1,1,4.607,0,4.581,4.581,0,0,1,9.163,4.556Z" transform="matrix(0.017, -1, 1, 0.017, 57.797, 2428.078)" fill="#087ad7"/>
    <path id="Path_34995" data-name="Path 34995" d="M9.112,4.556A4.556,4.556,0,1,1,4.556,0,4.556,4.556,0,0,1,9.112,4.556Z" transform="matrix(0.017, -1, 1, 0.017, 27.285, 2602.588)" fill="#087ad7"/>
    <path id="Path_34996" data-name="Path 34996" d="M9.112,4.556A4.556,4.556,0,1,1,4.556,0,4.556,4.556,0,0,1,9.112,4.556Z" transform="matrix(0.017, -1, 1, 0.017, 27.794, 2573.419)" fill="#087ad7"/>
    <path id="Path_34997" data-name="Path 34997" d="M9.112,4.556A4.556,4.556,0,1,1,4.556,0,4.556,4.556,0,0,1,9.112,4.556Z" transform="matrix(0.017, -1, 1, 0.017, 28.303, 2544.25)" fill="#087ad7"/>
    <path id="Path_34998" data-name="Path 34998" d="M9.112,4.556A4.556,4.556,0,1,1,4.556,0,4.556,4.556,0,0,1,9.112,4.556Z" transform="matrix(0.017, -1, 1, 0.017, 28.812, 2515.081)" fill="#087ad7"/>
    <path id="Path_34999" data-name="Path 34999" d="M9.112,4.556A4.556,4.556,0,1,1,4.556,0,4.556,4.556,0,0,1,9.112,4.556Z" transform="matrix(0.017, -1, 1, 0.017, 29.32, 2486.012)" fill="#087ad7"/>
    <path id="Path_35000" data-name="Path 35000" d="M9.163,4.556A4.581,4.581,0,1,1,4.581,0,4.582,4.582,0,0,1,9.163,4.556Z" transform="matrix(0.017, -1, 1, 0.017, 29.83, 2456.768)" fill="#087ad7"/>
    <path id="Path_35001" data-name="Path 35001" d="M9.163,4.556A4.581,4.581,0,1,1,4.607,0,4.581,4.581,0,0,1,9.163,4.556Z" transform="matrix(0.017, -1, 1, 0.017, 30.339, 2427.599)" fill="#087ad7"/>
    <path id="Path_35002" data-name="Path 35002" d="M9.163,4.556A4.581,4.581,0,1,1,4.607,0,4.581,4.581,0,0,1,9.163,4.556Z" transform="matrix(0.017, -1, 1, 0.017, 30.848, 2398.43)" fill="#087ad7"/>
    <path id="Path_35003" data-name="Path 35003" d="M9.112,4.556A4.556,4.556,0,1,1,4.556,0,4.556,4.556,0,0,1,9.112,4.556Z" transform="matrix(0.017, -1, 1, 0.017, -0.248, 2602.108)" fill="#087ad7"/>
    <path id="Path_35004" data-name="Path 35004" d="M9.112,4.556A4.556,4.556,0,1,1,4.556,0,4.556,4.556,0,0,1,9.112,4.556Z" transform="matrix(0.017, -1, 1, 0.017, 0.261, 2572.938)" fill="#087ad7"/>
    <path id="Path_35005" data-name="Path 35005" d="M9.112,4.556A4.556,4.556,0,1,1,4.556,0,4.556,4.556,0,0,1,9.112,4.556Z" transform="matrix(0.017, -1, 1, 0.017, 0.77, 2543.769)" fill="#087ad7"/>
    <path id="Path_35006" data-name="Path 35006" d="M9.112,4.556A4.556,4.556,0,1,1,4.556,0,4.556,4.556,0,0,1,9.112,4.556Z" transform="matrix(0.017, -1, 1, 0.017, 1.279, 2514.6)" fill="#087ad7"/>
    <path id="Path_35007" data-name="Path 35007" d="M9.112,4.556A4.556,4.556,0,1,1,4.556,0,4.556,4.556,0,0,1,9.112,4.556Z" transform="matrix(0.017, -1, 1, 0.017, 1.786, 2485.532)" fill="#087ad7"/>
    <path id="Path_35008" data-name="Path 35008" d="M9.163,4.556A4.581,4.581,0,1,1,4.581,0,4.582,4.582,0,0,1,9.163,4.556Z" transform="matrix(0.017, -1, 1, 0.017, 2.297, 2456.287)" fill="#087ad7"/>
    <path id="Path_35009" data-name="Path 35009" d="M9.163,4.556A4.581,4.581,0,1,1,4.607,0,4.581,4.581,0,0,1,9.163,4.556Z" transform="matrix(0.017, -1, 1, 0.017, 2.806, 2427.118)" fill="#087ad7"/>
    <path id="Path_35010" data-name="Path 35010" d="M9.163,4.556A4.581,4.581,0,1,1,4.607,0,4.581,4.581,0,0,1,9.163,4.556Z" transform="matrix(0.017, -1, 1, 0.017, 3.315, 2397.949)" fill="#087ad7"/>
  </g>
</svg>
