<svg xmlns="http://www.w3.org/2000/svg" width="166.689" height="157.754" viewBox="0 0 166.689 157.754">
  <g id="Group_19938" data-name="Group 19938" transform="translate(-1230.671 -839.046)">
    <g id="Group_16983" data-name="Group 16983" transform="translate(1232 840.375)">
      <path id="blob_3_" data-name="blob (3)" d="M98.906,22.072c0,27.708-41.638,65.561-74.04,65.561C-7.385,87.633-30.4,49.78-30.4,22.072S-7.385-23.2,24.865-23.2C57.267-23.2,98.906-5.636,98.906,22.072Z" transform="translate(30.4 45.449)" fill="#f86e70"/>
      <path id="blob_3_2" data-name="blob (3)" d="M129.306,45.272c0,27.708-41.638,65.561-74.04,65.561C23.015,110.833,0,72.98,0,45.272S23.015,0,55.265,0C87.667,0,129.306,17.564,129.306,45.272Z" transform="translate(46.84 0) rotate(25)" fill="none" stroke="#fff" stroke-width="2"/>
    </g>
    <g id="svgexport-6_-_2022-03-07T153550.982" data-name="svgexport-6 - 2022-03-07T153550.982" transform="translate(1196.628 885.625)">
      <g id="Group_17096" data-name="Group 17096" transform="translate(77.372)">
        <path id="Path_37547" data-name="Path 37547" d="M193.225,7.963a1.912,1.912,0,0,0,1.912-1.912V1.912a1.912,1.912,0,0,0-3.824,0V6.051A1.912,1.912,0,0,0,193.225,7.963Z" transform="translate(-176.789)" fill="#fff"/>
        <path id="Path_37548" data-name="Path 37548" d="M85.335,105.853a1.912,1.912,0,0,0-1.912-1.912H79.284a1.912,1.912,0,1,0,0,3.824h4.139A1.912,1.912,0,0,0,85.335,105.853Z" transform="translate(-77.372 -90.692)" fill="#fff"/>
        <path id="Path_37549" data-name="Path 37549" d="M272.78,105.853a1.912,1.912,0,0,0,1.912,1.912h4.139a1.912,1.912,0,0,0,0-3.824h-4.139A1.912,1.912,0,0,0,272.78,105.853Z" transform="translate(-247.872 -90.692)" fill="#fff"/>
        <path id="Path_37550" data-name="Path 37550" d="M117.609,37.191a1.912,1.912,0,0,0,2.7-2.7l-2.927-2.927a1.912,1.912,0,0,0-2.7,2.7Z" transform="translate(-109.438 -27.049)" fill="#fff"/>
        <path id="Path_37551" data-name="Path 37551" d="M248.8,37.192l2.927-2.927a1.912,1.912,0,1,0-2.7-2.7L246.1,34.488a1.912,1.912,0,0,0,2.7,2.7Z" transform="translate(-224.105 -27.049)" fill="#fff"/>
        <path id="Path_37552" data-name="Path 37552" d="M143.736,119.307s0-.008,0-.012a5.933,5.933,0,0,0-8.1-5.118,5.739,5.739,0,0,0-7.8-4.585,5.746,5.746,0,0,0-7.454-3.906V98.21a5.738,5.738,0,0,0-5.875-5.742,5.814,5.814,0,0,0-5.6,5.82c0,17.259,0,18.032,0,18.053a5.739,5.739,0,0,0-7.654,5.41s0,0,0,0v9.24a14.967,14.967,0,0,0,14.95,14.95H128.8a14.967,14.967,0,0,0,14.95-14.95c0-12.553,0-11.486-.009-11.688ZM128.8,142.12H116.2a11.138,11.138,0,0,1-11.126-11.126v-9.245a1.914,1.914,0,0,1,3.829,0v6.673a1.912,1.912,0,1,0,3.824,0c0-.769,0-25.266,0-30.135a1.968,1.968,0,0,1,1.867-2,1.916,1.916,0,0,1,1.962,1.919V111.1s0,.007,0,.01V122.19a1.912,1.912,0,1,0,3.824,0v-11.1a1.919,1.919,0,0,1,1.914-1.909,1.919,1.919,0,0,1,1.914,1.919c0,.641,0,4.32,0,11.091a1.912,1.912,0,0,0,3.824,0c0-.089,0-7.176,0-7.264a1.914,1.914,0,1,1,3.829,0c0,.028,0,2.629,0,7.26a1.912,1.912,0,0,0,3.824,0c0-.093.006-1.339.006-2.479a2.116,2.116,0,0,1,4.227-.14v11.423A11.138,11.138,0,0,1,128.8,142.12Z" transform="translate(-98.208 -80.681)" fill="#fff"/>
      </g>
    </g>
  </g>
</svg>
