<svg xmlns="http://www.w3.org/2000/svg" xmlns:xlink="http://www.w3.org/1999/xlink" width="905.751" height="677.02" viewBox="0 0 905.751 677.02">
  <defs>
    <clipPath id="clip-path">
      <rect x="11" width="905.751" height="677.02" fill="none"/>
    </clipPath>
  </defs>
  <g id="Scroll_Group_8" data-name="Scroll Group 8" transform="translate(-11)" clip-path="url(#clip-path)" style="isolation: isolate">
    <g id="دواير" transform="translate(-935.585 -106.98)">
      <path id="blob_4_" data-name="blob (4)" d="M247.587,9.432c48.088,30.75,98.793,75.894,112.859,135.431,14.394,59.21-7.851,132.814-55.939,156.04-47.761,23.553-121.365-3.6-185.482-13.085S.6,286.183-17.387,262.63c-17.665-23.226,1.309-77.529-5.234-138.7C-29.164,63.082-60.568-4.307-42.9-34.73-25.239-65.48,42.15-59.592,98.416-48.469S199.826-20.991,247.587,9.432Z" transform="translate(1010.032 570.609) rotate(-43)" fill="#418fde" opacity="0.08"/>
      <path id="blob_4_2" data-name="blob (4)" d="M122.617-18.82C150.39-1.06,179.674,25.012,187.8,59.4c8.313,34.2-4.534,76.705-32.307,90.119-27.584,13.6-70.093-2.078-107.123-7.557s-68.393-.945-78.784-14.548c-10.2-13.414.756-44.776-3.023-80.106-3.779-35.141-21.916-74.06-11.714-91.631,10.2-17.759,49.122-14.359,81.618-7.935S95.033-36.39,122.617-18.82Z" transform="translate(1639.008 656.962) rotate(129)" fill="#418fde" opacity="0.14"/>
      <path id="blob_5_" data-name="blob (5)" d="M376.545,31c51.688,32.489,87.13,94.514,103.867,164.416,17.229,69.409,15.26,146.2-28.059,178.691C409.527,406.6,324.858,395.276,257.418,413c-67.932,17.229-119.128,63.994-172.784,66.948C30.977,482.407-25.141,440.564-34,389.369-42.863,337.681-4.466,276.641-10.373,189.51S-66.983-10.348-40.893-46.776c25.6-36.92,127.988,2.954,213.15,23.629C256.925-2.472,324.858-1,376.545,31Z" transform="translate(1361.806 168.845)" fill="#cbe5ff"/>
      <g id="Group_19906" data-name="Group 19906" transform="translate(1608 240.041)" opacity="0.57">
        <path id="Path_34979" data-name="Path 34979" d="M9.112,4.556A4.556,4.556,0,1,0,4.556,9.112,4.556,4.556,0,0,0,9.112,4.556Z" transform="matrix(-0.017, -1, 1, -0.017, 1.737, 157.063)" fill="#087ad7"/>
        <path id="Path_34980" data-name="Path 34980" d="M9.112,4.556A4.556,4.556,0,1,0,4.556,9.112,4.556,4.556,0,0,0,9.112,4.556Z" transform="matrix(-0.017, -1, 1, -0.017, 1.228, 127.894)" fill="#087ad7"/>
        <path id="Path_34981" data-name="Path 34981" d="M9.112,4.556A4.556,4.556,0,1,0,4.556,9.112,4.556,4.556,0,0,0,9.112,4.556Z" transform="matrix(-0.017, -1, 1, -0.017, 0.721, 98.826)" fill="#087ad7"/>
        <path id="Path_34982" data-name="Path 34982" d="M9.163,4.607A4.581,4.581,0,1,0,4.581,9.163,4.582,4.582,0,0,0,9.163,4.607Z" transform="matrix(-0.017, -1, 1, -0.017, 0.16, 69.582)" fill="#087ad7"/>
        <path id="Path_34983" data-name="Path 34983" d="M9.112,4.556A4.556,4.556,0,1,0,4.556,9.112,4.556,4.556,0,0,0,9.112,4.556Z" transform="matrix(-0.017, -1, 1, -0.017, 29.704, 185.753)" fill="#087ad7"/>
        <path id="Path_34984" data-name="Path 34984" d="M9.112,4.556A4.556,4.556,0,1,0,4.556,9.112,4.556,4.556,0,0,0,9.112,4.556Z" transform="matrix(-0.017, -1, 1, -0.017, 29.195, 156.584)" fill="#087ad7"/>
        <path id="Path_34985" data-name="Path 34985" d="M9.112,4.556A4.556,4.556,0,1,0,4.556,9.112,4.556,4.556,0,0,0,9.112,4.556Z" transform="matrix(-0.017, -1, 1, -0.017, 28.686, 127.415)" fill="#087ad7"/>
        <path id="Path_34986" data-name="Path 34986" d="M9.112,4.556A4.556,4.556,0,1,0,4.556,9.112,4.556,4.556,0,0,0,9.112,4.556Z" transform="matrix(-0.017, -1, 1, -0.017, 28.179, 98.346)" fill="#087ad7"/>
        <path id="Path_34987" data-name="Path 34987" d="M9.163,4.606A4.581,4.581,0,1,0,4.581,9.163,4.581,4.581,0,0,0,9.163,4.606Z" transform="matrix(-0.017, -1, 1, -0.017, 27.618, 69.103)" fill="#087ad7"/>
        <path id="Path_34988" data-name="Path 34988" d="M9.163,4.606A4.581,4.581,0,1,0,4.607,9.162,4.581,4.581,0,0,0,9.163,4.606Z" transform="matrix(-0.017, -1, 1, -0.017, 27.109, 39.934)" fill="#087ad7"/>
        <path id="Path_34989" data-name="Path 34989" d="M9.112,4.556A4.556,4.556,0,1,0,4.556,9.112,4.556,4.556,0,0,0,9.112,4.556Z" transform="matrix(-0.017, -1, 1, -0.017, 57.389, 185.27)" fill="#087ad7"/>
        <path id="Path_34990" data-name="Path 34990" d="M9.112,4.556A4.556,4.556,0,1,0,4.556,9.112,4.556,4.556,0,0,0,9.112,4.556Z" transform="matrix(-0.017, -1, 1, -0.017, 56.879, 156.101)" fill="#087ad7"/>
        <path id="Path_34991" data-name="Path 34991" d="M9.112,4.556A4.556,4.556,0,1,0,4.556,9.112,4.556,4.556,0,0,0,9.112,4.556Z" transform="matrix(-0.017, -1, 1, -0.017, 56.37, 126.932)" fill="#087ad7"/>
        <path id="Path_34992" data-name="Path 34992" d="M9.112,4.556A4.556,4.556,0,1,0,4.556,9.112,4.556,4.556,0,0,0,9.112,4.556Z" transform="matrix(-0.017, -1, 1, -0.017, 55.863, 97.863)" fill="#087ad7"/>
        <path id="Path_34993" data-name="Path 34993" d="M9.163,4.607A4.581,4.581,0,1,0,4.581,9.163,4.582,4.582,0,0,0,9.163,4.607Z" transform="matrix(-0.017, -1, 1, -0.017, 55.302, 68.619)" fill="#087ad7"/>
        <path id="Path_34994" data-name="Path 34994" d="M9.163,4.606A4.581,4.581,0,1,0,4.607,9.162,4.581,4.581,0,0,0,9.163,4.606Z" transform="matrix(-0.017, -1, 1, -0.017, 54.793, 39.45)" fill="#087ad7"/>
        <path id="Path_34995" data-name="Path 34995" d="M9.112,4.556A4.556,4.556,0,1,0,4.556,9.112,4.556,4.556,0,0,0,9.112,4.556Z" transform="matrix(-0.017, -1, 1, -0.017, 85.356, 213.96)" fill="#087ad7"/>
        <path id="Path_34996" data-name="Path 34996" d="M9.112,4.556A4.556,4.556,0,1,0,4.556,9.112,4.556,4.556,0,0,0,9.112,4.556Z" transform="matrix(-0.017, -1, 1, -0.017, 84.846, 184.791)" fill="#087ad7"/>
        <path id="Path_34997" data-name="Path 34997" d="M9.112,4.556A4.556,4.556,0,1,0,4.556,9.112,4.556,4.556,0,0,0,9.112,4.556Z" transform="matrix(-0.017, -1, 1, -0.017, 84.337, 155.622)" fill="#087ad7"/>
        <path id="Path_34998" data-name="Path 34998" d="M9.112,4.556A4.556,4.556,0,1,0,4.556,9.112,4.556,4.556,0,0,0,9.112,4.556Z" transform="matrix(-0.017, -1, 1, -0.017, 83.828, 126.452)" fill="#087ad7"/>
        <path id="Path_34999" data-name="Path 34999" d="M9.112,4.556A4.556,4.556,0,1,0,4.556,9.112,4.556,4.556,0,0,0,9.112,4.556Z" transform="matrix(-0.017, -1, 1, -0.017, 83.321, 97.384)" fill="#087ad7"/>
        <path id="Path_35000" data-name="Path 35000" d="M9.163,4.607A4.581,4.581,0,1,0,4.581,9.163,4.582,4.582,0,0,0,9.163,4.607Z" transform="matrix(-0.017, -1, 1, -0.017, 82.76, 68.14)" fill="#087ad7"/>
        <path id="Path_35001" data-name="Path 35001" d="M9.163,4.606A4.581,4.581,0,1,0,4.607,9.162,4.581,4.581,0,0,0,9.163,4.606Z" transform="matrix(-0.017, -1, 1, -0.017, 82.251, 38.971)" fill="#087ad7"/>
        <path id="Path_35002" data-name="Path 35002" d="M9.163,4.606A4.581,4.581,0,1,0,4.607,9.162,4.581,4.581,0,0,0,9.163,4.606Z" transform="matrix(-0.017, -1, 1, -0.017, 81.742, 9.802)" fill="#087ad7"/>
        <path id="Path_35003" data-name="Path 35003" d="M9.112,4.556A4.556,4.556,0,1,0,4.556,9.112,4.556,4.556,0,0,0,9.112,4.556Z" transform="matrix(-0.017, -1, 1, -0.017, 112.889, 213.479)" fill="#087ad7"/>
        <path id="Path_35004" data-name="Path 35004" d="M9.112,4.556A4.556,4.556,0,1,0,4.556,9.112,4.556,4.556,0,0,0,9.112,4.556Z" transform="matrix(-0.017, -1, 1, -0.017, 112.38, 184.31)" fill="#087ad7"/>
        <path id="Path_35005" data-name="Path 35005" d="M9.112,4.556A4.556,4.556,0,1,0,4.556,9.112,4.556,4.556,0,0,0,9.112,4.556Z" transform="matrix(-0.017, -1, 1, -0.017, 111.871, 155.141)" fill="#087ad7"/>
        <path id="Path_35006" data-name="Path 35006" d="M9.112,4.556A4.556,4.556,0,1,0,4.556,9.112,4.556,4.556,0,0,0,9.112,4.556Z" transform="matrix(-0.017, -1, 1, -0.017, 111.361, 125.972)" fill="#087ad7"/>
        <path id="Path_35007" data-name="Path 35007" d="M9.112,4.556A4.556,4.556,0,1,0,4.556,9.112,4.556,4.556,0,0,0,9.112,4.556Z" transform="matrix(-0.017, -1, 1, -0.017, 110.854, 96.903)" fill="#087ad7"/>
        <path id="Path_35008" data-name="Path 35008" d="M9.163,4.606A4.581,4.581,0,1,0,4.581,9.163,4.582,4.582,0,0,0,9.163,4.606Z" transform="matrix(-0.017, -1, 1, -0.017, 110.293, 67.659)" fill="#087ad7"/>
        <path id="Path_35009" data-name="Path 35009" d="M9.163,4.606A4.581,4.581,0,1,0,4.607,9.162,4.581,4.581,0,0,0,9.163,4.606Z" transform="matrix(-0.017, -1, 1, -0.017, 109.784, 38.49)" fill="#087ad7"/>
        <path id="Path_35010" data-name="Path 35010" d="M9.163,4.606A4.581,4.581,0,1,0,4.607,9.162,4.581,4.581,0,0,0,9.163,4.606Z" transform="matrix(-0.017, -1, 1, -0.017, 109.275, 9.321)" fill="#087ad7"/>
      </g>
      <g id="Group_19905" data-name="Group 19905" transform="translate(1059.249 -2207.001)" opacity="0.52">
        <path id="Path_34979-2" data-name="Path 34979" d="M9.112,4.556A4.556,4.556,0,1,1,4.556,0,4.556,4.556,0,0,1,9.112,4.556Z" transform="matrix(0.017, -1, 1, 0.017, 110.903, 2545.692)" fill="#087ad7"/>
        <path id="Path_34980-2" data-name="Path 34980" d="M9.112,4.556A4.556,4.556,0,1,1,4.556,0,4.556,4.556,0,0,1,9.112,4.556Z" transform="matrix(0.017, -1, 1, 0.017, 111.412, 2516.523)" fill="#087ad7"/>
        <path id="Path_34981-2" data-name="Path 34981" d="M9.112,4.556A4.556,4.556,0,1,1,4.556,0,4.556,4.556,0,0,1,9.112,4.556Z" transform="matrix(0.017, -1, 1, 0.017, 111.92, 2487.454)" fill="#087ad7"/>
        <path id="Path_34982-2" data-name="Path 34982" d="M9.163,4.556A4.581,4.581,0,1,1,4.581,0,4.582,4.582,0,0,1,9.163,4.556Z" transform="matrix(0.017, -1, 1, 0.017, 112.43, 2458.21)" fill="#087ad7"/>
        <path id="Path_34983-2" data-name="Path 34983" d="M9.112,4.556A4.556,4.556,0,1,1,4.556,0,4.556,4.556,0,0,1,9.112,4.556Z" transform="matrix(0.017, -1, 1, 0.017, 82.936, 2574.382)" fill="#087ad7"/>
        <path id="Path_34984-2" data-name="Path 34984" d="M9.112,4.556A4.556,4.556,0,1,1,4.556,0,4.556,4.556,0,0,1,9.112,4.556Z" transform="matrix(0.017, -1, 1, 0.017, 83.445, 2545.213)" fill="#087ad7"/>
        <path id="Path_34985-2" data-name="Path 34985" d="M9.112,4.556A4.556,4.556,0,1,1,4.556,0,4.556,4.556,0,0,1,9.112,4.556Z" transform="matrix(0.017, -1, 1, 0.017, 83.954, 2516.043)" fill="#087ad7"/>
        <path id="Path_34986-2" data-name="Path 34986" d="M9.112,4.556A4.556,4.556,0,1,1,4.556,0,4.556,4.556,0,0,1,9.112,4.556Z" transform="matrix(0.017, -1, 1, 0.017, 84.462, 2486.975)" fill="#087ad7"/>
        <path id="Path_34987-2" data-name="Path 34987" d="M9.163,4.556A4.581,4.581,0,1,1,4.581,0,4.581,4.581,0,0,1,9.163,4.556Z" transform="matrix(0.017, -1, 1, 0.017, 84.972, 2457.73)" fill="#087ad7"/>
        <path id="Path_34988-2" data-name="Path 34988" d="M9.163,4.556A4.581,4.581,0,1,1,4.607,0,4.581,4.581,0,0,1,9.163,4.556Z" transform="matrix(0.017, -1, 1, 0.017, 85.481, 2428.561)" fill="#087ad7"/>
        <path id="Path_34989-2" data-name="Path 34989" d="M9.112,4.556A4.556,4.556,0,1,1,4.556,0,4.556,4.556,0,0,1,9.112,4.556Z" transform="matrix(0.017, -1, 1, 0.017, 55.252, 2573.899)" fill="#087ad7"/>
        <path id="Path_34990-2" data-name="Path 34990" d="M9.112,4.556A4.556,4.556,0,1,1,4.556,0,4.556,4.556,0,0,1,9.112,4.556Z" transform="matrix(0.017, -1, 1, 0.017, 55.761, 2544.729)" fill="#087ad7"/>
        <path id="Path_34991-2" data-name="Path 34991" d="M9.112,4.556A4.556,4.556,0,1,1,4.556,0,4.556,4.556,0,0,1,9.112,4.556Z" transform="matrix(0.017, -1, 1, 0.017, 56.27, 2515.56)" fill="#087ad7"/>
        <path id="Path_34992-2" data-name="Path 34992" d="M9.112,4.556A4.556,4.556,0,1,1,4.556,0,4.556,4.556,0,0,1,9.112,4.556Z" transform="matrix(0.017, -1, 1, 0.017, 56.778, 2486.492)" fill="#087ad7"/>
        <path id="Path_34993-2" data-name="Path 34993" d="M9.163,4.556A4.581,4.581,0,1,1,4.581,0,4.582,4.582,0,0,1,9.163,4.556Z" transform="matrix(0.017, -1, 1, 0.017, 57.288, 2457.247)" fill="#087ad7"/>
        <path id="Path_34994-2" data-name="Path 34994" d="M9.163,4.556A4.581,4.581,0,1,1,4.607,0,4.581,4.581,0,0,1,9.163,4.556Z" transform="matrix(0.017, -1, 1, 0.017, 57.797, 2428.078)" fill="#087ad7"/>
        <path id="Path_34995-2" data-name="Path 34995" d="M9.112,4.556A4.556,4.556,0,1,1,4.556,0,4.556,4.556,0,0,1,9.112,4.556Z" transform="matrix(0.017, -1, 1, 0.017, 27.285, 2602.588)" fill="#087ad7"/>
        <path id="Path_34996-2" data-name="Path 34996" d="M9.112,4.556A4.556,4.556,0,1,1,4.556,0,4.556,4.556,0,0,1,9.112,4.556Z" transform="matrix(0.017, -1, 1, 0.017, 27.794, 2573.419)" fill="#087ad7"/>
        <path id="Path_34997-2" data-name="Path 34997" d="M9.112,4.556A4.556,4.556,0,1,1,4.556,0,4.556,4.556,0,0,1,9.112,4.556Z" transform="matrix(0.017, -1, 1, 0.017, 28.303, 2544.25)" fill="#087ad7"/>
        <path id="Path_34998-2" data-name="Path 34998" d="M9.112,4.556A4.556,4.556,0,1,1,4.556,0,4.556,4.556,0,0,1,9.112,4.556Z" transform="matrix(0.017, -1, 1, 0.017, 28.812, 2515.081)" fill="#087ad7"/>
        <path id="Path_34999-2" data-name="Path 34999" d="M9.112,4.556A4.556,4.556,0,1,1,4.556,0,4.556,4.556,0,0,1,9.112,4.556Z" transform="matrix(0.017, -1, 1, 0.017, 29.32, 2486.012)" fill="#087ad7"/>
        <path id="Path_35000-2" data-name="Path 35000" d="M9.163,4.556A4.581,4.581,0,1,1,4.581,0,4.582,4.582,0,0,1,9.163,4.556Z" transform="matrix(0.017, -1, 1, 0.017, 29.83, 2456.768)" fill="#087ad7"/>
        <path id="Path_35001-2" data-name="Path 35001" d="M9.163,4.556A4.581,4.581,0,1,1,4.607,0,4.581,4.581,0,0,1,9.163,4.556Z" transform="matrix(0.017, -1, 1, 0.017, 30.339, 2427.599)" fill="#087ad7"/>
        <path id="Path_35002-2" data-name="Path 35002" d="M9.163,4.556A4.581,4.581,0,1,1,4.607,0,4.581,4.581,0,0,1,9.163,4.556Z" transform="matrix(0.017, -1, 1, 0.017, 30.848, 2398.43)" fill="#087ad7"/>
        <path id="Path_35003-2" data-name="Path 35003" d="M9.112,4.556A4.556,4.556,0,1,1,4.556,0,4.556,4.556,0,0,1,9.112,4.556Z" transform="matrix(0.017, -1, 1, 0.017, -0.248, 2602.108)" fill="#087ad7"/>
        <path id="Path_35004-2" data-name="Path 35004" d="M9.112,4.556A4.556,4.556,0,1,1,4.556,0,4.556,4.556,0,0,1,9.112,4.556Z" transform="matrix(0.017, -1, 1, 0.017, 0.261, 2572.939)" fill="#087ad7"/>
        <path id="Path_35005-2" data-name="Path 35005" d="M9.112,4.556A4.556,4.556,0,1,1,4.556,0,4.556,4.556,0,0,1,9.112,4.556Z" transform="matrix(0.017, -1, 1, 0.017, 0.77, 2543.77)" fill="#087ad7"/>
        <path id="Path_35006-2" data-name="Path 35006" d="M9.112,4.556A4.556,4.556,0,1,1,4.556,0,4.556,4.556,0,0,1,9.112,4.556Z" transform="matrix(0.017, -1, 1, 0.017, 1.279, 2514.6)" fill="#087ad7"/>
        <path id="Path_35007-2" data-name="Path 35007" d="M9.112,4.556A4.556,4.556,0,1,1,4.556,0,4.556,4.556,0,0,1,9.112,4.556Z" transform="matrix(0.017, -1, 1, 0.017, 1.786, 2485.532)" fill="#087ad7"/>
        <path id="Path_35008-2" data-name="Path 35008" d="M9.163,4.556A4.581,4.581,0,1,1,4.581,0,4.582,4.582,0,0,1,9.163,4.556Z" transform="matrix(0.017, -1, 1, 0.017, 2.297, 2456.287)" fill="#087ad7"/>
        <path id="Path_35009-2" data-name="Path 35009" d="M9.163,4.556A4.581,4.581,0,1,1,4.607,0,4.581,4.581,0,0,1,9.163,4.556Z" transform="matrix(0.017, -1, 1, 0.017, 2.806, 2427.118)" fill="#087ad7"/>
        <path id="Path_35010-2" data-name="Path 35010" d="M9.163,4.556A4.581,4.581,0,1,1,4.607,0,4.581,4.581,0,0,1,9.163,4.556Z" transform="matrix(0.017, -1, 1, 0.017, 3.315, 2397.949)" fill="#087ad7"/>
      </g>
    </g>
  </g>
</svg>
