<svg xmlns="http://www.w3.org/2000/svg" xmlns:xlink="http://www.w3.org/1999/xlink" width="740.935" height="570.415" viewBox="0 0 740.935 570.415">
  <defs>
    <clipPath id="clip-path">
      <rect y="183" width="740.935" height="570.415" fill="none"/>
    </clipPath>
    <clipPath id="clip-path-2">
      <path id="Path_37844" data-name="Path 37844" d="M340.767,0c188.2,0,340.767,152.567,340.767,340.767s-170.384,356.5-340.767,356.5S0,528.968,0,340.767,152.567,0,340.767,0Z" transform="translate(0)" fill="#418fde"/>
    </clipPath>
  </defs>
  <g id="Scroll_Group_8" data-name="Scroll Group 8" transform="translate(0 -183)" clip-path="url(#clip-path)" style="isolation: isolate">
    <g id="Group_19909" data-name="Group 19909" transform="translate(0 0)">
      <path id="blob_4_" data-name="blob (4)" d="M255.523,57.767c41.538,26.562,85.337,65.557,97.488,116.985,12.433,51.146-6.782,114.725-48.32,134.787-41.256,20.345-104.835-3.108-160.219-11.3S42.181,296.824,26.639,276.478c-15.259-20.063,1.13-66.97-4.521-119.811C16.467,104.109-10.66,45.9,4.6,19.62,19.858-6.942,78.068-1.856,126.67,7.752S214.268,31.488,255.523,57.767Z" transform="translate(0 511.975) rotate(-43)" fill="#418fde" opacity="0.08"/>
      <path id="blob_4_2" data-name="blob (4)" d="M147.575,33.363c23.99,15.341,49.285,37.862,56.3,67.564,7.181,29.539-3.917,66.258-27.907,77.845-23.827,11.75-60.546-1.8-92.533-6.528s-59.077-.816-68.053-12.566c-8.813-11.587.653-38.678-2.611-69.2C9.51,60.127-6.157,26.508,2.656,11.331c8.813-15.341,42.431-12.4,70.5-6.854S123.748,18.185,147.575,33.363Z" transform="translate(672.393 593.295) rotate(129)" fill="#418fde" opacity="0.14"/>
      <g id="Group_19906" data-name="Group 19906" transform="translate(580.83 234.308)" opacity="0.57">
        <path id="Path_34979" data-name="Path 34979" d="M7.871,3.936A3.936,3.936,0,1,0,3.935,7.871,3.936,3.936,0,0,0,7.871,3.936Z" transform="matrix(-0.017, -1, 1, -0.017, 1.501, 135.671)" fill="#087ad7"/>
        <path id="Path_34980" data-name="Path 34980" d="M7.871,3.936A3.935,3.935,0,1,0,3.935,7.871,3.935,3.935,0,0,0,7.871,3.936Z" transform="matrix(-0.017, -1, 1, -0.017, 1.061, 110.474)" fill="#087ad7"/>
        <path id="Path_34981" data-name="Path 34981" d="M7.871,3.936A3.936,3.936,0,1,0,3.935,7.871,3.936,3.936,0,0,0,7.871,3.936Z" transform="matrix(-0.017, -1, 1, -0.017, 0.623, 85.365)" fill="#087ad7"/>
        <path id="Path_34982" data-name="Path 34982" d="M7.915,3.979A3.957,3.957,0,1,0,3.957,7.915,3.958,3.958,0,0,0,7.915,3.979Z" transform="matrix(-0.017, -1, 1, -0.017, 0.138, 60.105)" fill="#087ad7"/>
        <path id="Path_34983" data-name="Path 34983" d="M7.871,3.935A3.936,3.936,0,1,0,3.935,7.871,3.936,3.936,0,0,0,7.871,3.935Z" transform="matrix(-0.017, -1, 1, -0.017, 25.659, 160.453)" fill="#087ad7"/>
        <path id="Path_34984" data-name="Path 34984" d="M7.871,3.935A3.936,3.936,0,1,0,3.935,7.871,3.936,3.936,0,0,0,7.871,3.935Z" transform="matrix(-0.017, -1, 1, -0.017, 25.219, 135.257)" fill="#087ad7"/>
        <path id="Path_34985" data-name="Path 34985" d="M7.871,3.935A3.935,3.935,0,1,0,3.935,7.871,3.935,3.935,0,0,0,7.871,3.935Z" transform="matrix(-0.017, -1, 1, -0.017, 24.779, 110.06)" fill="#087ad7"/>
        <path id="Path_34986" data-name="Path 34986" d="M7.871,3.935A3.936,3.936,0,1,0,3.935,7.871,3.936,3.936,0,0,0,7.871,3.935Z" transform="matrix(-0.017, -1, 1, -0.017, 24.341, 84.951)" fill="#087ad7"/>
        <path id="Path_34987" data-name="Path 34987" d="M7.915,3.979A3.957,3.957,0,1,0,3.957,7.915,3.957,3.957,0,0,0,7.915,3.979Z" transform="matrix(-0.017, -1, 1, -0.017, 23.856, 59.69)" fill="#087ad7"/>
        <path id="Path_34988" data-name="Path 34988" d="M7.915,3.979A3.957,3.957,0,1,0,3.979,7.914,3.957,3.957,0,0,0,7.915,3.979Z" transform="matrix(-0.017, -1, 1, -0.017, 23.416, 34.494)" fill="#087ad7"/>
        <path id="Path_34989" data-name="Path 34989" d="M7.871,3.935A3.936,3.936,0,1,0,3.935,7.871,3.936,3.936,0,0,0,7.871,3.935Z" transform="matrix(-0.017, -1, 1, -0.017, 49.572, 160.036)" fill="#087ad7"/>
        <path id="Path_34990" data-name="Path 34990" d="M7.871,3.935A3.936,3.936,0,1,0,3.935,7.871,3.936,3.936,0,0,0,7.871,3.935Z" transform="matrix(-0.017, -1, 1, -0.017, 49.132, 134.839)" fill="#087ad7"/>
        <path id="Path_34991" data-name="Path 34991" d="M7.871,3.935A3.935,3.935,0,1,0,3.935,7.871,3.935,3.935,0,0,0,7.871,3.935Z" transform="matrix(-0.017, -1, 1, -0.017, 48.692, 109.643)" fill="#087ad7"/>
        <path id="Path_34992" data-name="Path 34992" d="M7.871,3.935A3.936,3.936,0,1,0,3.935,7.871,3.936,3.936,0,0,0,7.871,3.935Z" transform="matrix(-0.017, -1, 1, -0.017, 48.254, 84.534)" fill="#087ad7"/>
        <path id="Path_34993" data-name="Path 34993" d="M7.915,3.979A3.957,3.957,0,1,0,3.957,7.915,3.958,3.958,0,0,0,7.915,3.979Z" transform="matrix(-0.017, -1, 1, -0.017, 47.77, 59.273)" fill="#087ad7"/>
        <path id="Path_34994" data-name="Path 34994" d="M7.915,3.979A3.957,3.957,0,1,0,3.979,7.914,3.957,3.957,0,0,0,7.915,3.979Z" transform="matrix(-0.017, -1, 1, -0.017, 47.33, 34.077)" fill="#087ad7"/>
        <path id="Path_34995" data-name="Path 34995" d="M7.871,3.935A3.935,3.935,0,1,0,3.935,7.871,3.935,3.935,0,0,0,7.871,3.935Z" transform="matrix(-0.017, -1, 1, -0.017, 73.73, 184.818)" fill="#087ad7"/>
        <path id="Path_34996" data-name="Path 34996" d="M7.871,3.935A3.936,3.936,0,1,0,3.935,7.871,3.936,3.936,0,0,0,7.871,3.935Z" transform="matrix(-0.017, -1, 1, -0.017, 73.29, 159.622)" fill="#087ad7"/>
        <path id="Path_34997" data-name="Path 34997" d="M7.871,3.935A3.936,3.936,0,1,0,3.935,7.871,3.936,3.936,0,0,0,7.871,3.935Z" transform="matrix(-0.017, -1, 1, -0.017, 72.85, 134.425)" fill="#087ad7"/>
        <path id="Path_34998" data-name="Path 34998" d="M7.871,3.935A3.935,3.935,0,1,0,3.935,7.871,3.935,3.935,0,0,0,7.871,3.935Z" transform="matrix(-0.017, -1, 1, -0.017, 72.41, 109.229)" fill="#087ad7"/>
        <path id="Path_34999" data-name="Path 34999" d="M7.871,3.935A3.936,3.936,0,1,0,3.935,7.871,3.936,3.936,0,0,0,7.871,3.935Z" transform="matrix(-0.017, -1, 1, -0.017, 71.972, 84.12)" fill="#087ad7"/>
        <path id="Path_35000" data-name="Path 35000" d="M7.915,3.979A3.957,3.957,0,1,0,3.957,7.915,3.958,3.958,0,0,0,7.915,3.979Z" transform="matrix(-0.017, -1, 1, -0.017, 71.488, 58.859)" fill="#087ad7"/>
        <path id="Path_35001" data-name="Path 35001" d="M7.915,3.979A3.957,3.957,0,1,0,3.979,7.915,3.957,3.957,0,0,0,7.915,3.979Z" transform="matrix(-0.017, -1, 1, -0.017, 71.048, 33.663)" fill="#087ad7"/>
        <path id="Path_35002" data-name="Path 35002" d="M7.915,3.979A3.957,3.957,0,1,0,3.979,7.915,3.957,3.957,0,0,0,7.915,3.979Z" transform="matrix(-0.017, -1, 1, -0.017, 70.608, 8.467)" fill="#087ad7"/>
        <path id="Path_35003" data-name="Path 35003" d="M7.871,3.935A3.935,3.935,0,1,0,3.935,7.871,3.935,3.935,0,0,0,7.871,3.935Z" transform="matrix(-0.017, -1, 1, -0.017, 97.513, 184.403)" fill="#087ad7"/>
        <path id="Path_35004" data-name="Path 35004" d="M7.871,3.935A3.936,3.936,0,1,0,3.935,7.871,3.936,3.936,0,0,0,7.871,3.935Z" transform="matrix(-0.017, -1, 1, -0.017, 97.073, 159.206)" fill="#087ad7"/>
        <path id="Path_35005" data-name="Path 35005" d="M7.871,3.935A3.936,3.936,0,1,0,3.935,7.871,3.936,3.936,0,0,0,7.871,3.935Z" transform="matrix(-0.017, -1, 1, -0.017, 96.634, 134.01)" fill="#087ad7"/>
        <path id="Path_35006" data-name="Path 35006" d="M7.871,3.935A3.935,3.935,0,1,0,3.935,7.871,3.935,3.935,0,0,0,7.871,3.935Z" transform="matrix(-0.017, -1, 1, -0.017, 96.194, 108.814)" fill="#087ad7"/>
        <path id="Path_35007" data-name="Path 35007" d="M7.871,3.935A3.936,3.936,0,1,0,3.935,7.871,3.936,3.936,0,0,0,7.871,3.935Z" transform="matrix(-0.017, -1, 1, -0.017, 95.755, 83.705)" fill="#087ad7"/>
        <path id="Path_35008" data-name="Path 35008" d="M7.915,3.979A3.957,3.957,0,1,0,3.957,7.915,3.958,3.958,0,0,0,7.915,3.979Z" transform="matrix(-0.017, -1, 1, -0.017, 95.271, 58.444)" fill="#087ad7"/>
        <path id="Path_35009" data-name="Path 35009" d="M7.915,3.979A3.957,3.957,0,1,0,3.979,7.915,3.957,3.957,0,0,0,7.915,3.979Z" transform="matrix(-0.017, -1, 1, -0.017, 94.831, 33.248)" fill="#087ad7"/>
        <path id="Path_35010" data-name="Path 35010" d="M7.915,3.979A3.957,3.957,0,1,0,3.979,7.915,3.957,3.957,0,0,0,7.915,3.979Z" transform="matrix(-0.017, -1, 1, -0.017, 94.391, 8.052)" fill="#087ad7"/>
      </g>
      <g id="Group_19907" data-name="Group 19907" transform="translate(59.4 0)">
        <ellipse id="Ellipse_8622" data-name="Ellipse 8622" cx="145.866" cy="145.866" rx="145.866" ry="145.866" transform="translate(389.804 431.451)" fill="#418fde"/>
      </g>
    </g>
  </g>
</svg>
