<svg xmlns="http://www.w3.org/2000/svg" width="166.689" height="157.754" viewBox="0 0 166.689 157.754">
  <g id="Group_19936" data-name="Group 19936" transform="translate(-273.671 -2943.422)">
    <g id="Group_16983" data-name="Group 16983" transform="translate(275 2944.75)">
      <path id="blob_3_" data-name="blob (3)" d="M98.906,22.072c0,27.708-41.638,65.561-74.04,65.561C-7.385,87.633-30.4,49.78-30.4,22.072S-7.385-23.2,24.865-23.2C57.267-23.2,98.906-5.636,98.906,22.072Z" transform="translate(30.4 45.449)" fill="#fcba06"/>
      <path id="blob_3_2" data-name="blob (3)" d="M129.306,45.272c0,27.708-41.638,65.561-74.04,65.561C23.015,110.833,0,72.98,0,45.272S23.015,0,55.265,0C87.667,0,129.306,17.564,129.306,45.272Z" transform="translate(46.84 0) rotate(25)" fill="none" stroke="#fff" stroke-width="2"/>
    </g>
    <g id="svgexport-6_-_2022-03-06T135139.081" data-name="svgexport-6 - 2022-03-06T135139.081" transform="translate(311 2994)">
      <g id="Layer_1" transform="translate(1 2)">
        <g id="Group_17077" data-name="Group 17077">
          <path id="Path_37490" data-name="Path 37490" d="M27.932,2A26.431,26.431,0,0,0,2.741,20.274a1.894,1.894,0,0,0,3.6,1.173A22.7,22.7,0,1,1,6.319,35.48a1.892,1.892,0,0,0-3.6,1.164A26.5,26.5,0,1,0,27.932,2Z" transform="translate(0.451 -2)" fill="#fff"/>
          <path id="Path_37491" data-name="Path 37491" d="M26.014,29.633A1.892,1.892,0,0,0,28.969,32l7.569-9.461a1.927,1.927,0,0,0,0-2.363L28.969,10.71a1.892,1.892,0,0,0-2.956,2.363l5.111,6.388H2.892a1.892,1.892,0,1,0,0,3.785H31.125Z" transform="translate(-1 5.138)" fill="#fff"/>
        </g>
      </g>
    </g>
  </g>
</svg>
