<svg xmlns="http://www.w3.org/2000/svg" width="1951.657" height="606" viewBox="0 0 1951.657 606">
  <g id="Group_17036" data-name="Group 17036" transform="translate(-136 -284.706)" opacity="0.23">
    <path id="Path_37408" data-name="Path 37408" d="M1980.634,727.616c-11.066-6.777-14.24-14.9-15.521-23.645-.453-3.086-7.5-5.817-8.431-8.974-1.9-6.455-12.609-11.912-7.436-19.191.661-.93-1.538-2.445-6.176-5.292-1.105,1.453-1.453,3.516-3.468,4.239-4.84,1.739-10.952.984-9.875-2.349,2.338-7.237-6.765-11.085-13.108-15.93-3.336-2.546-5.839-5.407-9.174-8.556l-8.673,5.348c-6.407-.448-13.847-.593-14.223,5.894-.106,1.821-5.863,3.583-9.143,5.309-5.5,2.9-11.109,5.735-16.647,8.612-1.3.674-2.262,1.742-3.786,2.053-9.88,2.016-11.265,5.275-9.55,10.871,1.757,5.73,1.443,12.247-7.1,17.124a25.474,25.474,0,0,1-8.923,2.556c-.882.1-3.119-2.248-4.173-3.6-6.282-8.042-12.645-16.069-18.459-24.21a39.455,39.455,0,0,1-5.981-11.623c-.988-3.4-.2-6.953-.2-10.583-5.677.468-10.069,1.213-14.339,1.047-2.868-.111-7.64-1.31-7.992-2.366-1.95-5.835-10.1-8.623-17.834-11.755-1.316-.534-2-1.517-3.744-1.014l-22.3-2.3c-9.662,3.983-28.038,1.445-33.028-6.348-7.7,3.135-15.983,4.165-23.84.637-6.185-2.777-11.506-6.109-17.21-9.195l1.937-1.451h-15.5c6.307,4.165,11.4,7.651,16.752,11.021,3.688,2.324,9.836,3.054,9.763,7.582-.063,3.854,13.969,4.331,19.753.728a40.635,40.635,0,0,0,4.48-3.494c8.027,3.612,15.332,6.866,22.567,10.165,5.818,2.653,4.605,5.294-.217,7.9-1.733.936-4.747,1.865-4.873,2.879-1.207,9.7-17.939,10.462-28.711,14.563-6.034,2.3-12.743,4.082-19.124,6.12-10.5,3.355-25.022,1.585-33.336,8.28-3.17,2.553-12.92-1.083-11.545-5.455,3.175-10.084-9.564-16.353-17.268-23.892-3.469-3.4-6.5-6.919-9.9-10.335-2.882-2.9-6.027-5.72-9.017-8.588-2.363-2.266-4.5-4.608-7.061-6.806a18.463,18.463,0,0,0-5.452-3.353c-4.349-1.649-9.087-3-16.871-5.513,6.448,4.921,10.983,8.683,16.1,12.2,4.649,3.194,11.37,5.828,6.228,10.687a1.908,1.908,0,0,0,.553,2.789c13.2,7.666,16.68,18.013,25.96,26.729,3.22,3.024,9.408,5.175,12.311,8.25,11.486,12.168,30.038,14.185,49.981,5.091a15.763,15.763,0,0,1,2.685-.455l7.923,4.844c-5.775,7.49-9.788,15.319-17.484,21.908-7.17,6.139-17.175,11.7-27.847,16.2-22.936,9.684-31.229,24.4-23.228,39.565,3.943,7.476,9.208,15.779-.438,23.539-.963.775-2.116,2.036-3.321,2.086-12.784.525-15.615,7.551-24.3,10.783-2.435.906-2.316,4.247-2.321,6.471-.007,3.085,1.871,6.228,1.2,9.234-.4,1.8-3.888,3.506-6.46,5.023-1.812,1.067-6.447,1.814-6.355,2.586.779,6.58-8.112,10.962-12.272,16.375-1.436,1.869-4.384,3.441-6.919,5.02-3.42,2.131-7.319,4.046-10.621,6.225-3.155,2.081-23.1,5.081-28.2,4.788-3.895-.224-9.512.193-11.823,1.563-6.388,3.784-12.33,1.9-17.392-.043-5.632-2.168-10.04-5.259-4.2-8.623-3.528-4.416-6.576-8.547-10.126-12.55-1.879-2.119-5.47-3.868-6.8-6.047-2.172-3.571-3.035-7.368-4.618-11.048-2.339-5.435-2.669-11.533-7.7-16.135-10.3-9.417-12.541-17.973.382-27,8.9-6.215-.37-12.406-.9-18.6-.307-3.6-1.193-7.47-4.035-10.646-3-3.355-8.356-6.171-13.2-8.964-5.482-3.163-10.58-5.53-4.077-10.62,3.569-2.794,2.628-7.527,2.22-11.34-.121-1.125-5.123-2.59-8.307-3.035-8.843-1.237-19.3-.807-20.812-7.838-.159-.741-4.786-1.773-7.211-1.682-4.616.173-9.948.435-13.542,1.774-9.23,3.44-18.678,4.321-29.729,3.576-5.095-.343-12.3.664-15.729,2.543-6.275,3.44-11.568,2.632-15.71-.121-12.67-8.421-24.562-17.18-36.733-25.818-.828-.588-1.267-1.716-2.2-1.825-11.459-1.333-4.595-4.722-2.6-7.653l-9.8-4.392c17.879-4.7,8.505-12.949,9.831-20.071,1.292-6.939,1.825-14.407,7.2-20.491,4.69-5.3,15.147-9.343,24.052-13.295,6.011-2.667,8.624-5.393,8.125-9.472-.556-4.544,1.088-7.805,11.926-8.969,4.741-.509,7.833-5.441,11.779-8.444,4.265.836,8.205,1.82,12.348,2.342,2.507.316,6.241.49,7.866-.254,14.532-6.654,32.425-6.926,49.941-7.947,5.644-.329,11.369-.814,16.971-.6,3.6.141,9.938,1.336,10.046,2.232.414,3.45,8.042,7.82-4.43,10.243l.359,1.752c6.488,1.379,13.041,2.678,19.447,4.159,6.692,1.547,13.255,3.256,19.851,4.921,4.381,1.1,8.723,2.255,13.1,3.391,1.68-3,2.282-5.578,4.484-7.669,3.65-3.464,8.251-3.7,15.443-1.653,8.188,2.334,15.454,6.258,26.268,5.756,3.208-.149,6.736,1.68,7.194,1.806,7.582-.782,13.239-2.311,17.741-1.633,9.522,1.434,14.072-.714,16.388-4.964a38.062,38.062,0,0,0,4.391-14.082c-11.655,2.4-21.766-3.195-33.362.082-2.922.826-12.434-2.487-15.462-5.068-3.155-2.689-2.315-6.785-2.789-10.283-.1-.721,1.717-1.517,2.841-2.434l-14.268-1.113-9.663,6.032,7.815,3.167c-1.987,1.693-3.365,4.258-5.736,4.559-3.451.437-9.765-.1-11.1-1.37-5.4-5.112-8.659-10.877-14.129-15.96-2.715-2.522-8.855-3.909-12.827-6.129-5.81-3.247-11.031-6.8-16.578-10.18-1.122-.685-2.574-1.213-4.586-2.141-1.692,1.369-3.981,2.392-4.124,3.5-.4,3.116,15.012,12.152,20.008,13.759,6.929,2.229,12.718,5.48,19,8.294l-2.215,1.57-7.2-1.022-11.25,12.263-12.08-3.931.875-1.345,11.425-.717c4.135-6.22-5.928-8.2-11.609-11.183-7.658-4.016-16.153-7.572-24.289-11.326l1.379-2.056-18.065,4.775-15.273-2,1.652,1.948c-6.138,3.751-11.969,7.668-18.539,11.186-3.5,1.875-8.55,2.5-4.64,6.38,1.308,1.3-4.731,4.462-6.438,6.965-3.336,4.891-9.658,2.659-15.416,2.261-5.012-.346-10.762,5.224-15.222-.574a5.536,5.536,0,0,0-3.333-1.2c-11.2,2.715-13.17-2.3-16.5-5.789-1.069-1.119-1.267-3.393.058-4.1,7.04-3.772,5.09-8.149,4.027-12.54-.952-3.929,1.348-6.648,9.618-6.382,5.387.173,10.7.97,16.071,1.357,4.977.359,10,.546,15.6.841,1-3.447,3.954-7.258,2.49-10.494-1.3-2.877-7.507-5.112-11.528-7.639-1.7-1.072-3.357-2.167-5.032-3.252,1.987-.645,3.992-1.276,5.958-1.939,3.852-1.3,7.683-2.615,11.14-3.793,5.436-1.152,10.868-1.868,15.385-3.375,5.156-1.72,9.5-4.145,16.639-7.367-.771-7.175,14.651-5.785,26.1-8.508-.928-2.056-.961-4.5-3.018-6.253-6.732-5.746-6.426-6.65,6.168-8.952-.729-.98-1.9-1.919-2-2.891-.074-.71.938-1.719,2.055-2.111a7.852,7.852,0,0,1,3.8.334,70.056,70.056,0,0,1,2.382,9.056c.529,2.717-.538,5.814,1.628,8.031,1.128,1.156,7.726.722,11.823,1.1,11.439,1.059,20.382-4.235,33.223-2.76,9.126,1.049,8.609-6.38,11.155-10.353,1.273-1.986,1.623-4.142,2.479-6.465l12.391,4.062,2.924-1.177c-7.177-3.425-9.561-6.765,2.38-10.563-17.026-.017-23.087-4.88-23.839-11.428-.279-2.432,4.026-5.12,6.792-7.507,1.437-1.239,4.162-2.03,6.151-3.106,3.038-1.644,5.943-3.36,10.493-5.949-4.113-.651-9.138-2.321-13.2-1.8-3.055.39-4.6,3.7-7.3,5.5-4.04,2.7-7.675,5.971-12.967,7.651-8.777,2.787-12.195,7.134-5.517,11.225,7.956,4.873,8.861,8.513-1.153,13.254-6.147,2.91-8.8,7.874-13.707,11.659-1.449,1.118-5.24,1.359-7.957,2-.92-1.245-1.729-2.518-2.781-3.73-2.829-3.256-4.821-6.919-9.029-9.551-2.289-1.432-8.594-1.735-12.764-1.4-5.381.438-10.437,2.027-15.677,3.13-3.651-5.356-7.1-9.809-9.7-14.4-2.392-4.223,2.915-8.733,11.64-10.429,15.309-2.975,24.206-8.906,31.006-16.777,4.58-5.3,10.479-10.828,24.544-11.851,8.017-.583,15.365-3.823,23.875-6.1l-8.835-6.172h22.665V432.9c8.938-1.6,17.274,3.59,25.729.031a6.646,6.646,0,0,1,3.718.838c7.129,8.12,24.506,7.629,35.737,12.3,3.653,1.52,8.829,1.965,12.6,3.428,2.875,1.116,6.876,3.329,6.362,4.579-.784,1.908-4.61,4.484-7.894,4.853-6.7.754-13.9.226-21.547.226.421,5.13,4.752,9.7,12.727,12.4.322-2.367.647-4.769.974-7.171l12.72,3.2c9.272-.161-9.645-5.937,3.8-7.05,6.038-.5,11.887-1.659,19.293-2.732l-6.579-10.534c8.88-1.522,14.336-.682,15.642,4.2,1.021,3.816,5.5,4.586,9.494,2.034,10.6-6.777,25.265-6.315,39.238-7.453,5.326-.434,10.5-1.39,17.057-2.287l4.409,3.04,2.1-.19c-.375-2.194-.749-4.387-1.184-6.937,17-1.77,30.836,1.047,41.516,8.922l2.463-1.556c-2.217-1.943-4.3-3.934-6.677-5.82-4.987-3.96-12.78-7.579-1.559-12.386,2.485-1.064,1.514-4.2,3.382-6.007,2.011-1.948,5.377-4.737,8.361-4.814,3.223-.084,8.572,2.214,9.7,4.055,3.377,5.515,5.157,11.312,7.52,17,.236.567-.145,1.264.325,1.741,6.638,6.723,9.849,12.879-10.736,15.407l2.791,1.88c4.181-.459,9.042-.368,12.34-1.542,2.958-1.053,4.69-3.4,6.107-5.349,5.233-7.215,5.1-7.243,17.073-3.82-1.545-4.856-3.936-5.544-12.7-4.382-2.271.3-7.123-.381-7.358-.992a192.384,192.384,0,0,1-5.7-18.395c-.122-.44,1.06-.982,2.227-1.985l14.1,11.835,3.154-.812c-.4-1.323-1.987-3.269-.949-3.842,2.353-1.3,7.212-3.114,8.913-2.615,7.275,2.133,13.774,5.029,22.274,7.131-3.866-2.408-7.934-4.732-11.527-7.252-2.371-1.663-6.079-3.838-5.478-5.362.59-1.5,5.635-3.184,9.134-3.5,6.171-.566,12.653-.158,20.113-.158l-7.636-6.079c3.688-1.127,7.3-2.335,11.078-3.363,8.6-2.34,18.549-1.194,27.765-4,6.774-2.066,17.729-.2,26.818-.03,1.708.032,3.4.319,5.311.51.666-1.737.562-3.4,1.92-4.585,2.433-2.121,5.235-5.135,8.827-5.581,3.822-.474,9.887,1.005,12.917,2.7,4.854,2.705,7.527,4.9,15.592,2.024,6.7-2.387,28.33,2.415,29.638,6.619.813,2.616-3.94,6.27-7.927,8.606-3.161,1.853-9.052,2.309-13.537,3.583a18.871,18.871,0,0,0-6.244,3.1c33.38-5.52,48.292-5.182,81.65,2.219,9.244-6.258,22.2-7.64,30.342-2.757,2.185,1.31,1.02,4.231,1.632,7.808,10.644,3.9,19.2,4.008,22.881.386l39.82,2.019c-6.9-5.773-.934-7.713,5.228-8.751,11.987,1.177,20.3,5.746,32.5,4.127,4.442-.589,10.492.683,14.907,1.987,11.011,3.251,20.493,7.567,35.146,4.7,8.383-1.641,17.861.075,24.236,4.53,2.758,1.927,6.649,3.386,9.768,4.93,14.431-7.421,28.649-.789,43.417-1.682,1.606-3.671,6.235-3.471,14.232-3.606,15.86-.267,28.247,4.737,42.871,5.7a13.072,13.072,0,0,1,5.017,1.065c7.552,4.7,19.228,5.189,28.307,8.251a13.528,13.528,0,0,1,4.555,3.021c11.168.594,21.188,1.034,31.094,1.866.659.055,1.754,3.655.33,4.6-1.965,1.3-6.133,1.639-10,2.539.973.9,2.561,1.793,2.853,2.792.39,1.338-.223,2.759-.4,4.145-2.872-.131-6.028.106-8.562-.461-7.875-1.76-15.944-3.462-23.089-5.9-4.531-1.549-7.546-4.376-12.814-7.59v7.765l-10.356,3.875c6.084,3.851,21.025,4.088,16.313,11.921-20.544-2.2-29.25.592-36.62,10.882-6.8-.863-14.511-3.27-19.625-2.176-8.972,1.92-21.448,3.274-20.886,10.244l13.451,7.122-21.148,26.435c-3.949-1.683-7.143-2.352-7.98-3.512-5.662-7.843-17.528-15.29-12.4-24.089,3.346-5.743,11.478-10.906,18.929-15.669,6.6-4.218,7.512-3.892,1.65-8.1a46.052,46.052,0,0,0-4.143,3.288c-2.665,2.7-4.929,2.4-9.147.54-3.784-1.665-10.774-3.823-13.494-3.009-4.553,1.362-8.479,4.706-9.752,7.587-3.522,7.975-7.608,8.991-19.8,4.308-2.046-.786-6.212-.226-9.283.063-4.451.42-8.752,1.517-13.2,1.682-6.855.254-14.052-.681-20.59.111a35.886,35.886,0,0,0-13.624,4.868c-3.472,2.119-4.708,5.247-7.528,7.736-2.576,2.274-5.956,4.284-9.239,6.591l13.8,6.206c6.714-3.413,12.258-3.288,17.735,1.034,2.377,1.875,4.55,4.232,4.754,6.426,1,10.787,2.018,21.632-10.6,31.153-6.29,4.748-9.664,11.411-25.175,9.089-2.046-.307-6.608,1.788-8.083,3.308-3.609,3.722-6.093,7.758-8.621,11.123,4.823,4.229,11.238,8.687,15.224,13.7,3.467,4.362-2.312,8.809-10.284,8.81-2.519,0-7-1.782-7.236-2.948-1.345-6.521-5-12.056-17.7-15l5.659-4.07c-9.484-4.441-14.589,3.187-23.115,1.8-.911-2.13-1.912-4.47-3.232-7.554-5.225,2.669-9.992,4.65-13.5,7.142-1.246.885-.435,3.713,1.23,4.4,2.215.913,6.219.868,9.388.746,4.271-.165,9.229-1.751,12.539-1,4.986,1.128,6.188,3.648.087,5.682-11.95,3.985-13.585,6.9-3.5,12.43,10.325,5.664,7.853,13.053,12.391,19.42.612.857-.439,2.313-1.519,3.215-3.655,3.054-9.247,5.167-9.221,9.739.012,2.18-8.052,4.135-11.381,6.61-5.978,4.444-12.994,5.666-23.428,5.678-7.569.009-15.123,3.754-23.394,6.028l-5.2-4.272c-2.189,1.848-3.431,3.46-5.555,4.6-10.28,5.493-10.535,7.68,1.193,12.778,13.271,5.768,18.4,13.214,11.879,21.281-4.112,5.083-13.8,8.865-22,13.85-5.814-4.64,3.527-13.879-14.632-10.73a15.318,15.318,0,0,1-1.524-1.217c-1.892-2.129-3.469-4.367-5.872-6.311-.426-.345-6.071.392-6.177.841a15.687,15.687,0,0,0,.055,7.231c1.7,7.156,12.753,10.927,20.8,15.66,8.176,4.809,5.562,10.264,4.646,15.562-.106.615-7.71.855-11.837,1.269ZM1557.761,558.061l-10.676-7.309c-1.613,2.808-2.446,4.588-3.671,6.286-1.023,1.42-2.072,3.735-3.849,3.958-15.917,2-9.132,9.34-15.127,15.541,16.442-1.926,29.594-3.555,42.839-4.923,2.026-.209,4.461.831,6.748,1.225,8.3,1.429,16.524,3.054,24.993,4.1,2.421.3,7.523-.866,7.964-1.818a4.306,4.306,0,0,0-2.244-5.31,152.705,152.705,0,0,0-22.514-8.226c-3.258-.884-8.513.234-12.81.605-6.237.538-12.43,1.225-18.642,1.848l-2.452-2.636Zm116.807-4.159-2.343-1.357c-3.727,0-8.093-.676-11.054.133-7.426,2.028-15.339,4.182-20.765,7.4-2.531,1.5-1.412,6.079.977,8.39,4.426,4.279,11,7.917,16.881,11.958-10.2,7.557-9.948,9.5,4.622,13.969,3.1.949,8.86.5,12.342-.436a4.61,4.61,0,0,0,2.985-5.039c-1.161-3.789-3.686-7.456-5.565-11.186-.247-.489.052-1.058.139-2.042l7.8,1.716c.238-1.119.238-1.119-10.439-3.663-.409-1.277-.882-2.755-1.349-4.208-12.371-.747-14.345-2.913-6.98-8.376C1665.418,558.488,1670.278,556.306,1674.568,553.9Zm40.376,10.033c6.37,1.451,9.778,2.576,13.462,2.992,6.841.774,6.443-2.026,6.167-4.318a45.369,45.369,0,0,0-1.72-6.213c-.156-.573.126-1.607-.238-1.669-2.813-.476-7.8-1.437-8.292-1C1720.764,556.882,1718.1,560.332,1714.944,563.935Zm-149.793-7.98q.4.917.8,1.834l9.932,1.4,13.35-7.52-1.153-.8Z" transform="translate(-319.277 -67.092)" fill="#ddd"/>
    <path id="Path_37409" data-name="Path 37409" d="M552.955,503.247c1.279-4.721,7.5-7.645,14.5-9.523,1.916-.514,9.045,2.094,10.384,3.969,2.652,3.714,2.938,7.917,4.5,12.849,6.039-2.151,11.144-6.906,13.128-.354.615,2.031.1,4.162,2.257,6.667,4.035-3.843,7.177-8.112,12.51-11.337,2.4-1.451,9.831-1.675,13.724-.816,2.488.549,3.17,4.066,3.707,6.318.291,1.219-1.483,2.566-2.209,3.874-1.206,2.173-1.165,5.56-3.729,6.271-4.179,1.159-10.032.625-15.183.7-2.352.035-6.714-.419-6.789-.24-2.921,6.928-11.549,3.271-17.056,2.7,2.139,2.083,6.981,4.777,5.924,6.249-1.534,2.135-7.877,3.116-11.206,5.064-12.71,7.435-32.969,11.356-38.045,22.359l2.88-.009c2.413,2.4,5.953,4.668,6.962,7.226,1.335,3.389,4.291,3.657,9.887,3.732a41.311,41.311,0,0,1,13.094,2.811c8.529,3.163,15.948,7.458,28.228,6.3,4.217,5.747-8.078,12.308,2.633,17.638,12.8-.154,16.711-3.863,15.422-10.213-.711-3.506.16-6.6,7.527-8.876,2.779-.859,2.419-5.55,1.854-8.4-.758-3.825-6.341-7.674,3.363-10.755,1.718-.546.754-3.531,1.023-5.389.387-2.67-.085-5.482,1.356-7.975,2.1-3.628,6.124-5.874,13.636-2.628,1.714.74,4.729.55,7.02.98a130.6,130.6,0,0,1,14.133,2.978c4.451,1.384,8.2,3.419,9.43,5.293.969,3.776-.488,9.7,3.337,10.946,14.43,4.7,16.145-4.69,23.858-8.06,5.131,4.367,9.431,8.667,14.925,12.469,3.451,2.389-6.76,4,.378,6.881,3.663,1.477,5.874,4.181,11.366,5.146,1.962.345,2.837,2.476,5.227,4.768,6.349,1.064,11.655,7.283,7.558,11.637a3.761,3.761,0,0,1-2.134,1.154c-16.973,1.225-31.364,7.88-50.578,5.609-7.018-.829-16.2,3.611-23.688,6.6,9.09.463,15.486-7.255,25.744-1.573-4.854,5.667-2.513,7.891,9.106,9.812,3.356.554,6.206,1.991,9.289,3.024-2.956,1.232-5.835,2.522-8.884,3.683a137.862,137.862,0,0,1-14.367,5.12c-3.076.807-7.12.551-10.729.772l-1.133-2.158,18.417-8.24-2.251-1.717c-3.687,1.384-7.481,2.694-11.039,4.168-5.958,2.47-11.107,5.93-17.793,7.365-9.826,2.108-14.759,4.532-10.019,9.277-8.232,2.466-15.772,4.559-22.939,6.972a13.226,13.226,0,0,0-4.976,3.591c-2.464,2.4-4.6,4.892-7.87,8.417,2.279,7.957,2.13,8.113-14.206,12.925-21.695,6.391-24.217,9.543-19.182,22.937,1.937,5.154,3.208,10.382,5.181,16.89-15.559-4.037-20.158-9.393-19.413-16.409a3.662,3.662,0,0,0-.341-2.782c-3.674-4.686-28.862-7.916-35.425-4.388-1.647.885-1.084,2.956-2.017,6.1l-17.13-4.977-2.895,2.678c-2.459-.932-4.937-1.871-7.4-2.813a7.156,7.156,0,0,0-1.9.377c-9.282,6.078-23.471,10.777-23.25,19.72a35.019,35.019,0,0,0,5.486,18.736c1.388,2.1,11.77,3.595,17.78,3.365,5.355-.2,12.61-2.552,14.991-5.06,4.1-4.317,9.033-6.529,17.682-6.117,5.684.271,8.225,2.019,6.546,5.254-2.8,5.391-5.344,10.82-7.619,15.465l27.58,2.945c-1.721,4.717-3.411,8.258-4.245,11.857-1.827,7.894,6.24,11.136,20.836,10.1,5.743-.407,12.246,2.281,19.438,3.774,1.936-6.919,14.7-9.935,24.994-13.765,3.776-1.4,13.35-.663,17.533,1.043,12.147,4.954,23.768,8.216,39.051,4.169,2.882-.763,7.065-.109,8.963,1.2,4.7,2.979,9.131,6.1,14.171,8.9,5.085,2.825,10.774,5.337,16.412,8.091,10.037-5.323,17.1.5,23.756,3.475,14.8,6.615,17.282,12.766,11.161,18.954,4.359.644,8.937,1.409,13.6,1.965a31.039,31.039,0,0,0,5.866-.071c8.047-.625,14.183.472,20.616,3.654,4.47,2.212,12.743,2.121,19.156,3.309,6.369,1.181,13.307,2.1,18.612,4.167,7.843,3.049,17.19,6.294,17.87,12.007.388,3.261-2.872,6.964-6.109,9.964-5.4,5-12.151,9.585-18.18,14.4a1.936,1.936,0,0,0-.678,2.267c5.71,10.888-5.841,20.251-10.072,30.176-.98,2.3-10.787,4.157-17.1,5.035-17.487,2.433-22.345,6.692-26.256,16.3-2.3,5.648-4.967,12.606-16.546,16.232-1.439.451-1.982,1.691-3.052,2.524-4.294,3.344-7.572,7.461-13.361,9.7-3.364,1.3-10.785-.42-16.272-.774,1.107,4.136,14.441,8.134,5.129,12.8-6.536,3.272-17.084,4.233-26.65,6.41-2.233,10.2-2.233,10.2-15.609,6.989-.322.3-1.069.74-.9.895,7.9,7.393,6.563,12.748-5.894,18.45-5.661,2.591-6.1,3.83.96,5.681,2.409.632,5.077,3.055,4.621,4.355a28.143,28.143,0,0,1-6.285,9.447c-6.925,7.344-7.139,7.286-5.569,13.484l25.162,7.84c-19.164,5-26.848,3.73-28.319-4.454l-4.767,4.672c-9.532-6.193-18.311-11.846-26.954-17.559-1.588-1.049-4.116-2.546-3.668-3.486,2.868-6.014-3.685-12.117,1.519-18.192,3.12-3.642,4.291-7.856-3.131-11.06a3.337,3.337,0,0,1-1.859-2.354c-1.167-5.559-2.613-11.121-3-16.7-.177-2.546,1.445-5.206,2.953-7.691,3.133-5.162,7.383-10.047,1.853-15.7-1.913-1.956-.994-4.987-.128-7.4,2.68-7.462,7.781-14.811,8.514-22.3.82-8.377-1.2-16.947-3.932-25.246-.887-2.693-7.142-5.932-12.3-6.968-16.6-3.331-23.781-10.415-29.94-18.439a261.445,261.445,0,0,0-17.267-19.8c-1.532-1.624-7.234-2.69-7.259-4.032-.056-3.1,2.192-6.217,4.193-10.953-4.469-4.548-3.019-9.177,6.98-14.514,14.339-7.654,16.577-15.418,6.937-23.259-1.385-1.126-1.833-2.586-4.443-3.627-3.694,5.728-7.383,5.941-14.263,3.405-7.054-2.6-16.333-3.6-22.767-6.5-4.729-2.129-7.1-6.063-9.345-9.42-3.218-4.8-10.555-5.919-18.3-7.24-4.5-.768-9.443-1.8-12.645-3.537-5.732-3.106-10.837-5.3-19.806-3.656-3.6.658-9.028,0-12.539-1.073-13.856-4.25-27.355-8.844-40.77-13.49-1.65-.572-3.13-2.353-2.756-3.368,2.042-5.531-4.567-8.945-9.563-12.956-8.816-7.077-20-13.381-23.878-22.141-1.092-2.467-6.478-4.385-9.9-6.555l-3.413,1.063,31.59,32.188c-12.287,1.264-17.649-2.865-18.79-6.12-2.1-5.992-8.368-9.106-19.083-11.144,6.8-4.775,4.156-8.309-2.584-11.419-.8-.368-1.714-.9-1.851-1.411-1.937-7.2-4.1-14.284-19.824-16.77,1.8-4.022-12.03-5.91-5.113-10.721.405-.282-.693-1.572-1.681-1.991-14.755-6.248-6.384-14.109-4.569-21.247,1.391-5.469,5.625-10.72,8.289-16.112.671-1.359,1-3.064.072-4.306-5.646-7.562-8.307-15.485-10.749-23.456-.192-.629-1.267-1.284-2.249-1.722-6.468-2.886-10.529-6.153-6.817-9.977-4.763-3.107-8.756-5.8-12.927-8.4-2.439-1.524-4.74-3.3-7.853-4.281-4.509-1.414-10.817-1.575-14.359-3.394-7.108-3.65-13.7-6.859-24.591-5.793-1.6.157-3.625-2.072-5.881-2.44-4.593-.75-9.706-6.334-14.209.773-1.944,3.07-9.209,5.386-14.8,7.463-2.276.844-6.544.139-9.906.139l-1.827-1.806,16.191-9.721c-1.442-.154-3.8-.8-5.731-.537-5.188.707-20.8,12.246-20.957,15.27-.034.651,1.478,1.332,1.415,1.976a15.174,15.174,0,0,1-1.544,6.255c-.262.463-5.963.632-6.074.434-.991-1.759-1.289-3.631-1.94-6.016-4.829,2.089-9.834,4.87-15.836,6.72-12.2,3.762-24.719,7.282-37.584,10.32-3.6.851-8.872-.327-16.473-.745,18.314-8.721,44.72-7.8,55.919-21.182-8.5.547-14.05,1.512-19.238,1.115-11.717-.9-1.427-4.683-2.673-7.04-11.39.452-12.1-.064-10.865-5.507.274-1.2-2.764-2.623-3.583-3.337,3.858-2.887,6.328-6.036,10.741-7.68,4.573-1.7,11.254-1.671,16.587-2.922A22.488,22.488,0,0,0,192.679,532c-16.561,6.158-24.488,1.148-30.836-6.228,10.962-7.615,27.777-2.174,43.9-4.546-3.641-.954-5.433-1.587-7.4-1.9-3.447-.555-7.762-.394-10.34-1.477-4.129-1.735-7.138-4.239-10.62-6.419,4.359-.828,8.627-2.118,13.1-2.371,5.882-.332,10.912-.606,11.967-4.455a2.83,2.83,0,0,1,1.767-2.054c7.869-1.767,15.808-3.461,23.861-4.969a108.661,108.661,0,0,1,11.342-1.269c2.062-.161,5.827-.279,6.094.116,4.05,5.987,9.651,2.209,15.533.288,4.567,6.056,13.53,3.639,21.757,3.962,21.749.854,43.033,3.221,62.89,8.424,2.231.585,4.727.879,7,1.29,8.768-7.426,19.973-10.973,29.213-8.741l-7.774,3.063.92.967c3.223-.9,6.829-1.553,9.555-2.774,2.341-1.049,3.676-2.746,6.244-4.781,6.125,6.7,15.65,6.686,26.117,5.3a22.036,22.036,0,0,1,5.28.351c10.8,1.372,21.527,2.909,32.38,4.134,7.505.847,8.939,1.67,8.213,7.327,12.3-7.7,17.553,1.808,26.518,2.723,3.072-8.236,6.075-8.888,18.661-4.531,7.292,2.524,21.658,1.9,29.166-1.132,5.309-2.144,10.492-2.816,15.283,2.769,3.763-2.994,8.069-5.049,8.579-7.347.3-1.352-5.431-3.089-8.45-4.654Z" transform="translate(0 -128.458)" fill="#ddd"/>
    <path id="Path_37410" data-name="Path 37410" d="M1156.844,367.781c-6.671,11.319-23.769,17.089-45.118,14.945-8.732-.877-12.561,1.621-13.41,5.462-.932,4.219-5.463,5.647-12.2,6.144-5.762.425-11.515.962-17.307,1.169-8.014.287-10.862,2.007-12.86,6.642-3.094,7.177-9.7,13.986-15.938,20.646-1.254,1.338-9.591,2.511-11.174,1.727-10.7-5.3-26.114-8.375-27.326-18.311-.613-5.024-6.728-9.794-9.427-14.823-2.216-4.129-1.7-8.035,6.667-10.692,3.515-1.117,5.739-3.408,8.55-5.165-3.28-1.372-6.533-2.761-9.854-4.1-1.084-.438-2.343-.751-4.8-1.523l10.457-3.191q.136-.836.272-1.671l-10.264-.589c-3.321-6.3-5.9-13.115-10.553-19.5-5.213-7.152-10.392-8.168-24.717-7.306-11.535.694-23.385,1.957-33.232-2.92a33.4,33.4,0,0,1-4.306-3.115l18.273-1.3q.026-1.122.052-2.243-6.127-.315-12.255-.628-6.834-.339-13.672-.658c3.686-1.329,7.254-2.766,11.082-3.965,8.614-2.7,17.356-5.278,27.414-8.32-1.734-4.935,2.853-7.925,14.657-7.7,2.344.045,5.953-1.23,7-2.405,4.564-5.13,14.056-5.9,22.345-7.168,3.989-.61,9.234,1.146,14.418,1.906,4.585-2.983,9.336-3.021,12.241.254,1.154,1.3,3.525,2.293,5.341,3.425,1.043-1.434,2.1-2.865,3.122-4.3.364-.513.638-1.045,1.54-2.547l21.378,2.858c.389-1.945.91-4.556,1.44-7.215,1.382-.166,2.714-.574,3.361-.366,10.01,3.218,16.605,1.935,25.919-2.329,10.754-4.925,26.517-4.674,40.842-3.456,1.891.161,3.4,1.6,6.725,3.273l-19.379,3.37q.1.711.19,1.423c16.563-.244,33.606-8.1,49.73-1.415q.07.929.14,1.858l-22.32,1.937,5.891,6.651,16-4.114,2.534,1.259L1154.4,308.5c4.554-1.172,7.436-1.483,9.116-2.418,10.027-5.579,23.247-6.058,36.244-6.429,4.08-.116,8.335,1.539,12.509,2.384-3.108,1.61-5.712,3.939-9.422,4.689-9.436,1.909-19.366,3.113-30.082,4.749l9.97,3.086c-5.63,2.115-10.532,3.644-14.656,5.637-2.106,1.018-2.818,2.868-4.16,4.343,2.487.4,5.078.672,7.438,1.228,3.469.817,6.775,1.835,10.15,2.768-1.692,1.555-2.771,3.509-5.2,4.584-5.678,2.513-5.324,4.758,1.737,6.651,1.6.43,3.076,1,7.555,2.474l-26.884,12.7-10.2-1.826-2.6,1.416c2.15,1.2,4.387,2.359,6.432,3.608a103.215,103.215,0,0,1,10.093,6.658c.273.216-3.637,1.956-5.606,2.989-3.968-1.077-8.033-2.064-11.877-3.257-5.772-1.79-9.872-1.586-12.843,4.014Z" transform="translate(-219.605 0)" fill="#ddd"/>
    <path id="Path_37411" data-name="Path 37411" d="M2529.743,1376c1.44,2.589,2.71,4.516,3.563,6.5,1.044,2.42.248,5.58,2.868,7.195,7.412,4.569,11.254,9.54,10.5,15.511-.438,3.472.813,6.191,8.024,7.141a8.234,8.234,0,0,1,3.626,1.165c7.275,6.416,14.505,12.849,21.419,19.377,1.123,1.06,1.052,2.626.85,3.927-.939,6.025-2.074,12.041-3.251,18.054-.221,1.133-.373,2.47-1.55,3.314-6.208,4.45-12.94,8.691-19.065,13.171-3.244,2.373-5.58,5.1-8.42,7.635a14.539,14.539,0,0,1-3.766,2.81c-14.4,6.492-42.729,6.874-56.867.609-2.078-.921-4.067-3.264-3.315-4.433,3.707-5.766-1.889-6.518-11.361-6.028l6.967-7.479-16.741,7.643a24.456,24.456,0,0,1-2.333-3.436c-2.926-7.59-18.337-11.549-31.748-8.37-4.118.977-8.978,1.013-13.4,1.672-4.385.654-10.872.868-12.567,2.461-6.7,6.3-17.1,5.414-27.638,5.508-4.972.044-9.909,1.205-14.862,1.86q.092.844.183,1.687c-3.29-.735-6.772-1.292-9.834-2.24-8.735-2.7-9.184-5.241-2.589-9.313,1.854-1.144,3.779-2.937,3.457-4.28-.809-3.378-1.4-7.2-4.738-9.89-8.133-6.538-3.084-13.762-5.48-20.545-1.23-3.479-.16-6.962,9.425-6.225a4.493,4.493,0,0,0,2.079-.234c8.838-6.919,24.853-5.774,36.275-9.465,6.372-2.058,10-6.564,16.242-10.928,3.809-1.73,10.736-4.009,15.467-7.222,7.54-5.122,9.839-5.655,17.363-.97,4.173,2.6,7.411,2.058,8-.818,1.153-5.634,6.8-7.706,18.317-7.05l-7.636-5.565c4.923,0,8.018-.3,10.814.059,7.216.934,14.228,2.333,21.459,3.222,6.283.772,5.51,2.506,2.888,4.622-2.488,2.008-5.248,3.918-8.439,6.28,8.092,3.172,15.1,6.1,22.506,8.687,1.72.6,6.476.521,7.01-.032,2.558-2.648,5.809-5.58,5.728-8.386C2519.01,1387.442,2517.475,1381.781,2529.743,1376Z" transform="translate(-623.522 -670.898)" fill="#ddd"/>
    <path id="Path_37412" data-name="Path 37412" d="M871.286,510.9l8.95,7.36c-4.537,0-7.778.517-9.852-.1a111.617,111.617,0,0,1-16.191-5.9c-7.565-3.636-13.875-8.223-25.91-3.954-1.4.5-6.521-2.042-9.918-3.173,2.325-1.84,4.076-4.065,7.165-5.391,2.246-.964,6.269-.714,9.482-1.054,10.3-1.089,17-5.147,16.459-9.938-.471-4.192-3.594-5.259-17.066-5.585,0-1.064.779-2.426-.152-3.175a61.532,61.532,0,0,0-8.132-5.2c-12.147,5.135-25.08-3.376-37.45.713-3.4,1.123-10.3.876-7.867-3.635.319-.592-.78-1.806-1.863-2.151-9.971-3.174-5.124-7.724-2.619-11.32,2.909-4.177,9.123-6.981,19.222-5.037l-3.94,8.175,2.655.674c5.513-5.046,7.289-13.244,23.659-9.605,10.855,2.412-1.9,5.8-.52,7.79,6.841-1.175,13.071-2.525,19.541-3.287,9.233-1.088,11.184,2.834,14.284,6.243,1.417,1.559,4.932,2.778,7.994,3.643,4.148,1.171,8.785,1.84,13.194,2.75,14.088,2.908,15.651,5.52,5.376,13.118,6.082,1.787,11.955,3.465,17.738,5.226,4.595,1.4,13.151,3.217,12.859,4.3-.914,3.394-4.945,6.6-8.459,9.657-.4.347-5.833-.361-7.771-1.283-3.2-1.522-4.993-3.924-8.3-5.326-1.392-.589-5.14.426-7.816.711.69,1.513.526,3.459,2.257,4.442,3.078,1.748,9.635,2.586,10.516,4.4,1.4,2.881-.663,6.248-1.554,10.952l-14.789-5.67Z" transform="translate(-180.083 -102.664)" fill="#ddd"/>
    <path id="Path_37413" data-name="Path 37413" d="M851.674,319.442c-18.211,1.509-39.643,9.985-49.785-5.261,6.137-1.8,11.458-3.833,17.385-4.889,3.137-.56,7.305.769,11.052.91,3.773.143,9.755.648,11.016-.361,4.6-3.678,10.427-3.47,17.179-3.173,3.043.134,6.244-.756,10.57-1.344l8.019,4.023c6.057-6.113,16.11-5.327,26-4.945,7.945.306,16.034.119,23.808.884,3.949.389,7.345,2.4,10.992,3.674-2.937,1.125-5.607,2.813-8.865,3.258-6.613.905-13.544,1.139-20.352,1.65,3.789,8.69-9.306,15.328-25.623,13.57a28.913,28.913,0,0,0-12.607,2.16c-8.1,3.538-15.335,7.643-23.359,11.746,3.836,3.249,1.6,7.6-8.471,8.225a316.794,316.794,0,0,1-38.855-.246c-4.045-.25-7.407-3.694-9.394-4.766,8.7-2.872,14.922-5.528,21.976-7.121,12.49-2.821,1.285-7.807,4.631-12.247l9.618,1.97c4.864-1.6,8.352-3.077,12.305-3.945,4.173-.917,8.791-1.25,13.216-1.838Q851.9,320.409,851.674,319.442Z" transform="translate(-185.021 -11.951)" fill="#ddd"/>
    <path id="Path_37414" data-name="Path 37414" d="M584.895,462.205c6.2-.794,12.008-5.365,18.8-.574,8.612-3.593,10.618,1.5,16.616,4.419-2.906-7.908,10.787-7.687,15.8-11.559.558-.431,5.261.686,5.889.777-2.991,4.065-8.229,7.7-7.126,10.64,1.17,3.129,8.355,5.609,13.525,8.743l-6.1,1.263c3,7.066,2.581,7.269-11.537,7.512-10.882.187-21.957,1.393-32.573.636-11.018-.785-21.587-3.387-32.352-5.194q-.085-1.3-.169-2.6l17.363-2.9c.011-.227.022-.453.033-.68-3.87,0-7.868.322-11.565-.108-2.679-.311-4.957-1.618-7.413-2.481,2.211-.942,4.341-1.945,6.647-2.813,4.639-1.747,9.375-3.42,14.066-5.124C584.8,462.166,584.895,462.205,584.895,462.205Z" transform="translate(-121.04 -104.318)" fill="#ddd"/>
    <path id="Path_37415" data-name="Path 37415" d="M2347.113,1250.233c-8.929,2.708-15.735,1.35-20.183-4.093-2.257-2.763-6.236-5.118-8.548-7.873a5.105,5.105,0,0,1-.828-5.347c.292-.646,5.03-.466,7.189-1.16,6.75-2.168,13.91-4.176,19.657-6.985,7.5-3.665,13.8-8.039,21.336-12.538l20.6,4.453c-2.759,2.2-4.57,4.423-7.627,5.9-5.624,2.725-7.454,4.954-.976,8.161a3.481,3.481,0,0,1,1.144,4.958,140.159,140.159,0,0,1-12.648,12.893c-2.037,1.9-4.406,4.546-7.549,5C2355.968,1253.994,2351.949,1251.75,2347.113,1250.233Z" transform="translate(-616.7 -570.221)" fill="#ddd"/>
    <path id="Path_37416" data-name="Path 37416" d="M2527.227,1301.439c9.065-3.374,16.573-6.5,24.746-9,2.273-.694,6.672.236,9.832.829,10.945,2.054,21.774,4.287,32.806,5.476,2.982,2.06,6.132,4.057,8.906,6.2,3.918,3.02,10.779,4.962,9.7,9.858-.317,1.435,6.962,3.266,10.493,5.067a58.251,58.251,0,0,1,5.86,3.823c-3.077.614-6.112,1.673-9.239,1.757-9.5.257-15.142-2.88-19.926-6.916-5.868-4.952-9.824-5.018-16.039-.437-4.541,3.346-9.1,4.663-16.405,2-2.831-1.03-7.233-.816-10.922-1.163-2.277-.215-4.558-.42-6.837-.63.634-1.192.565-2.978,2.021-3.476,7.618-2.6,3.64-5.384-.355-7.094-4.9-2.1-11.249-3.239-17.037-4.717C2532.364,1302.39,2529.733,1301.953,2527.227,1301.439Z" transform="translate(-676.102 -619.377)" fill="#ddd"/>
    <path id="Path_37417" data-name="Path 37417" d="M1815.791,1402.521c-2.192,3.465-4.362,6.458-5.975,9.536-3.873,7.383-10.557,14.293-11.219,22.235-.5,5.979-8.738,9.185-18.4,11.207-1.279.268-3.362-.267-4.86-.661-7.428-1.954-11.387-12.468-6.381-16.081,3.86-2.785,7.546-5.006,3.276-9.455-5.7-5.936,1.755-10.371,14.92-13.045,5.273-1.071,8.554-5.191,12.34-8.075a57.945,57.945,0,0,0,5.95-5.859c2.312,1.928,4.8,3.8,6.875,5.8A35.409,35.409,0,0,1,1815.791,1402.521Z" transform="translate(-461.073 -680.933)" fill="#ddd"/>
    <path id="Path_37418" data-name="Path 37418" d="M1383.805,673.88c2.306,2.455,4.063,4.472,6.057,6.419,4.167,4.068,6.074,8.86,14.273,11.657,1.727.589,2.693,3.527,1.514,4.567-4.8,4.235-11.068,7.239-21.669,7.158-5.965-.046-11.977,1.673-21.015,3.067l8.178-6.643-.826-9.79,10.966-2.618-19.634-9c5.323-5.365,4.631-6.19-7.278-8.291l3.955-4.949,4.632,4.857c6.974-10,14.655-1.126,22.33-.735C1384.7,671.287,1384.109,673,1383.805,673.88Z" transform="translate(-344.485 -234.073)" fill="#ddd"/>
    <path id="Path_37419" data-name="Path 37419" d="M2244.942,1239.872l3.623,1.026c2.853,3.7,5.687,7.395,8.564,11.084,2.213,2.837,4.367,4.2,9.536,1.021,1.207-.743,7.095.708,8.252.845-2.03,4.3-3.022,7-4.623,9.585-1.132,1.832-2.375,4.45-4.878,5-2.423.533-7.728-.606-9.685-1.911-11.493-7.663-24.963-14.465-30.458-24.591-1.977-3.642-11.564-6.1-17.7-9.083-2.492-1.212-5.039-2.391-7.561-3.586,1.394-.77,3.015-2.276,4.141-2.176a50.153,50.153,0,0,1,11.2,2.007C2225.4,1232.53,2235.1,1236.258,2244.942,1239.872Z" transform="translate(-583.584 -579.349)" fill="#ddd"/>
    <path id="Path_37420" data-name="Path 37420" d="M1868.091,408.921c-4.651,1.049-7.568,1.606-10.318,2.343-12.873,3.452-26.421,6.362-38.379,10.571-18.708,6.584-19.129,11.241-4.192,19.4-6.229,4.018-17.059,3.237-22.958-.271-11.034-6.562-4.992-11.778,1.359-17.8,9.725-9.218,25.853-11.544,43.27-13.2a49.332,49.332,0,0,0,12.557-2.949C1856.033,404.479,1861.242,404.983,1868.091,408.921Z" transform="translate(-466.561 -74.234)" fill="#ddd"/>
    <path id="Path_37421" data-name="Path 37421" d="M1506.8,357.415c5.851-1.589,9.514-3.328,13.162-3.319,2.534.007,5.023,2.431,7.574,3.751,3.228,1.67,6.1,3.671,9.854,4.882,4.588,1.482,10.137,2.089,14.824,3.5,1.654.5,3.312,2.608,2.621,3.358-1.041,1.129-4,2.217-6.4,2.411a98.462,98.462,0,0,1-10.962-.151l-7.223-5.272c-2.517,2.15-5.1,4.277-7.522,6.458-1.36,1.227-2.442,2.542-3.65,3.818-2.284-.781-5.27-1.295-6.718-2.393-4.243-3.217-14.1-5.545-5.243-10.72-6.305.807-11.388,2.242-15.592,1.7-2.536-.325-4.547-3.647-5.178-5.762-.387-1.3,1.856-3.077,3.824-4.171.613-.34,4.115,1.077,6.424,1.3C1500.682,357.209,1504.868,357.31,1506.8,357.415Z" transform="translate(-381.789 -42.659)" fill="#ddd"/>
    <path id="Path_37422" data-name="Path 37422" d="M570.328,455.276s-.093-.039-.089-.04c-10.217,2.207-20.663,4.162-30.581,6.71-6.888,1.769-12.734,4.462-20.685,1.118-6.692-2.816-9.709-5.335-1.163-8.545a2.363,2.363,0,0,0,.754-.418c3-2.863,5.049-6.248,9.261-8.432,3.238-1.68,9.192-1.85,13.133-2.548,7.376,1.459,14.266,2.867,21.218,4.183C569.391,448.669,572.964,451.039,570.328,455.276Z" transform="translate(-106.473 -97.389)" fill="#ddd"/>
    <path id="Path_37423" data-name="Path 37423" d="M2539.233,874.535c-1.355,2.264-4.38,4.561-3.4,6.137,5.471,8.776-10.874,14.145-27.687,10.659.167,1.428.319,2.711.417,3.541-4.26.542-8.58,1.8-12.194,1.364-4.172-.5-7.722-2.5-14.081-4.741l21.36-6.817,1.821,1.255c1.086-1.78,2.171-3.56,3.212-5.265,12.034.06,15.42-2.529,14.592-10.506a7,7,0,0,1,.892-4.869c.51-.733,3.619-1.421,5.337-1.294a6.885,6.885,0,0,1,4.215,2.117C2535.863,868.9,2537.486,871.8,2539.233,874.535Z" transform="translate(-663.396 -356.126)" fill="#ddd"/>
    <path id="Path_37424" data-name="Path 37424" d="M1263.728,576.69l-22.84-3.3,3.48-5.84-11.261.6c-1.2-7.033,1.212-7.722,13.807-6.882,8.607.575,17.564-.416,26.371-.636,5.123-.128,11.655-2.845,14,2.311,2.057,4.515.572,8.072-7.9,10.109C1274.01,574.342,1268.572,575.567,1263.728,576.69Z" transform="translate(-310.121 -169.12)" fill="#ddd"/>
    <path id="Path_37425" data-name="Path 37425" d="M776.947,405.17c.3,7.841,10.339,8.822,20.933,9.239,4.342.171,8.745,0,13.111-.123,12.579-.347,14.388.853,11.8,7-13.773,0-27.16.02-40.545-.009-6.382-.013-25.876-7.6-26.189-10.907-.157-1.67,3.508-4.306,6.6-4.986C766.624,404.51,771.755,405.17,776.947,405.17Z" transform="translate(-175.315 -73.911)" fill="#ddd"/>
    <path id="Path_37426" data-name="Path 37426" d="M2439.758,1261.341a28.182,28.182,0,0,1,1.013,3.816c-8.31.941-16.712,1.646-25.59,2.42l2.116,4.367,13.2-2.207-7.406,9.078c1.26,1.139,3.983,2.692,4.678,4.473.761,1.947-.356,4.1-.655,6.17a94.172,94.172,0,0,1-9.844-3.9c-1-.528-.16-2.064-.16-3.509-1.544.55-2.405.683-2.561.94-1.155,1.9-2.166,3.822-3.224,5.737-1.745-.482-4.744-.809-5.029-1.472-1.624-3.783-11.853-6.387-5.36-11.3,3.086-2.335,7.957-4.818,8.086-7.293.356-6.843,6.781-6.182,15.713-5.226C2428.51,1263.836,2432.983,1262.357,2439.758,1261.341Z" transform="translate(-639.79 -600.409)" fill="#ddd"/>
    <path id="Path_37427" data-name="Path 37427" d="M2783.263,1680.034c3.544,1.182,8.476,1.942,9.757,3.545.961,1.2-2.249,3.708-4.508,5.25-8,5.459-16.091,10.9-24.771,16.036-3.363,1.991-8.854,4.653-12.523,4.318-3.822-.35-8.814-3.837-9.214-6.155-.37-2.147,3.749-5.2,7.486-6.73,8.926-3.653,19.061-6.445,28.111-10.021C2780.274,1685.221,2780.954,1682.71,2783.263,1680.034Z" transform="translate(-736.822 -857.81)" fill="#ddd"/>
    <path id="Path_37428" data-name="Path 37428" d="M780.922,358c-3.784-2.125-7.638-4.215-11.324-6.387-2.379-1.4-6.905-3.326-6.327-4.322a30.491,30.491,0,0,1,9.753-10.433c1.315-.856,9.355.386,13.137,1.668,13.117,4.443,15.123,7.51,11.545,13.285C795.218,355.823,790.6,357.478,780.922,358Z" transform="translate(-177.342 -31.887)" fill="#ddd"/>
    <path id="Path_37429" data-name="Path 37429" d="M661.7,422.319c-19.042,1.508-34.539,2.969-50.149,3.865-6.963.4-11.465-1.483-7.872-5.738a7.393,7.393,0,0,1,4.559-1.955c9.512.235,16.356-1.787,21.5-6.064.963-.8,5.362-1.437,6.559-.965C644.664,414.76,652.609,418.37,661.7,422.319Z" transform="translate(-131.875 -77.827)" fill="#ddd"/>
    <path id="Path_37430" data-name="Path 37430" d="M952.95,778.732c-2.13-7.485,2.225-11.228,18.4-15.988l3.313,5.228c12.382,1.332,17.16,7.8,10.3,15.187-4.106-3.286-14.588.5-17.285-5.13C967.494,777.629,958.473,778.449,952.95,778.732Z" transform="translate(-230.844 -293.885)" fill="#ddd"/>
    <path id="Path_37431" data-name="Path 37431" d="M2823.277,1648.4c-5.177-.443-10.519-7.67-3.906-11.814,6.917-4.334,5.732-7.652,1.019-11.831-1.5-1.328-1.278-3.257-1.4-4.921-.013-.171,4.017-.832,4.442-.54a18.431,18.431,0,0,1,4.372,4.215c3.112,4.187,6.711,8.021,16.664,8.456,2.689,4.131-.02,6.833-6.88,9.171C2832.738,1642.793,2829.034,1645.415,2823.277,1648.4Z" transform="translate(-757.833 -820.426)" fill="#ddd"/>
    <path id="Path_37432" data-name="Path 37432" d="M2349.873,1344.415c-9.833-2.046-20,4.256-30.405-1.981-2.8-1.677-11.223-.371-16.761-1.1-3.583-.473-6.612-2.159-9.889-3.3,3.071-1.389,6.267-4.024,9.189-3.94a280.748,280.748,0,0,1,29.713,2.531c6.868.939,13.238,2.931,19.83,4.452Q2350.711,1342.743,2349.873,1344.415Z" transform="translate(-609.824 -645.132)" fill="#ddd"/>
    <path id="Path_37433" data-name="Path 37433" d="M1346.6,707.631c9.173.05,13.868.734,10.844,5.1a4.612,4.612,0,0,0-.927,3.392c.779,3.967-.966,5.407-9.439,6.93-12.578,2.259-18.82,5.1-14.893-5.529,1.241-3.361-1.976-5.659,7-6.281C1342.387,711.021,1345.021,708.449,1346.6,707.631Z" transform="translate(-337.882 -260.003)" fill="#ddd"/>
    <path id="Path_37434" data-name="Path 37434" d="M684.665,457.51l9.758,3.425c-.806-2.464-1.716-3.876-1.581-5.258.111-1.139,1.111-3.065,2.322-3.213a70.913,70.913,0,0,1,12.674-.308c.864.052,1.518,2.168,1.866,3.367.587,2.029,1.673,4.164,1.036,6.111-.733,2.242-2.089,5.29-5.069,6.2-2.778.851-9.758.108-11.84-1.266C690.04,464.069,678.675,463.474,684.665,457.51Z" transform="translate(-154.647 -102.854)" fill="#ddd"/>
    <path id="Path_37435" data-name="Path 37435" d="M722.13,1064.477c4.69-.9,9.331-2.495,14.08-2.593,17.155-.352,30.646,5.219,45.078,9.029,5.205,1.374,4.4,3.578-1.437,4.994-8.762,2.126-13.732,1.148-17.982-3.922-3.8-4.528-21.674-8.09-32.637-6.5-1.924.279-3.838.577-5.757.866Z" transform="translate(-165.724 -477.779)" fill="#ddd"/>
    <path id="Path_37436" data-name="Path 37436" d="M2554.854,828.936c-6.739,0-10.814.1-14.863-.038a26.9,26.9,0,0,1-6.725-.939c-.717-.224-.817-2.066.017-2.508,6.417-3.4,5.99-7.2,3.458-11.392-.525-.868,1.458-2.172,1.2-1.821,7.157,2.58,14.235,4.636,20.006,7.461,2.245,1.1,2.668,4.079,1.843,5.936C2559.052,827.287,2555.445,828.571,2554.854,828.936Z" transform="translate(-677.647 -324.277)" fill="#ddd"/>
    <path id="Path_37437" data-name="Path 37437" d="M2394.989,422.351c13.59-10.8,15.565,1.589,24.18.908-.845,1.168-1.166,2.123-1.6,2.138-10.811.378-21.664.991-32.431.7-2.509-.067-5.378-3.128-6.751-5.082-.533-.759,2.759-3.286,4.055-3.232,3.525.146,6.971,1.173,10.313,2.007C2393.5,419.98,2393.694,420.809,2394.989,422.351Z" transform="translate(-634.002 -81.814)" fill="#ddd"/>
    <path id="Path_37438" data-name="Path 37438" d="M2423.289,1111.947c-6.335,3.17-12.662,2.513-18.294-.2-2.035-.98-4.081-3.122-3.439-4.318a45.228,45.228,0,0,1,7.947-9.96c.91-.912,4.55-1.849,6.158-1.553,2.257.416,5.052,1.867,5.4,3.062C2422.309,1103.274,2422.626,1107.649,2423.289,1111.947Z" transform="translate(-640.535 -498.675)" fill="#ddd"/>
    <path id="Path_37439" data-name="Path 37439" d="M2448.816,1201.641c-2.372-1.447-4.784-2.853-7.053-4.322-2.029-1.314-3.9-2.7-5.985-4.154l-8.158,2.977-2.813-1c2.6-2.376,5.141-4.777,8.053-7.039.111-.087,3.816,1.161,6.249,1.911,4.147-1.925,8.772-5.552,15.762-2C2461.366,1191.317,2459.043,1196.1,2448.816,1201.641Z" transform="translate(-647.143 -554.407)" fill="#ddd"/>
    <path id="Path_37440" data-name="Path 37440" d="M1566.729,357.071c-6.044-.81-10.274-.7-12.049-1.766-3.037-1.825-4.536-4.388-6.681-6.642,3.906-.509,7.789-1.373,11.724-1.45,7.092-.139,14.222.144,21.324.359a54.2,54.2,0,0,1,5.768.768c-.51,1.038-.4,2.6-1.635,3.025C1578.7,353.584,1571.877,355.512,1566.729,357.071Z" transform="translate(-399.232 -38.406)" fill="#ddd"/>
    <path id="Path_37441" data-name="Path 37441" d="M563.345,411.9l-8.354-4.458c2.974-1.318,5.63-2.972,8.987-3.885,7.1-1.93,14.428-3.678,21.954-5.036,2.017-.364,7.208.893,7.257,1.492.139,1.7-1.977,4.978-2.595,4.938-8.842-.577-12.651,3.082-18.023,5.523C570.854,411.254,567.884,411.239,563.345,411.9Z" transform="translate(-118.467 -69.93)" fill="#ddd"/>
    <path id="Path_37442" data-name="Path 37442" d="M2528.48,742.288c-4.014-8.523-7.394-15.7-10.655-22.624,1.951-.64,2.717-1.084,3.158-1.005,4,.716,13.9,11.513,13.486,13.654-.254,1.323,1.459,2.762,2.343,4.139,1.312,2.047,2.673,4.086,4.013,6.129Z" transform="translate(-673.443 -266.777)" fill="#ddd"/>
    <path id="Path_37443" data-name="Path 37443" d="M697.68,414.863c2.425-.494,5.75-1.75,8.939-1.658,3.171.091,8.73,1.487,8.794,2.4a6.538,6.538,0,0,1-4.038,6.288c-10.255,3.73-24.467.141-26.229-6.325-.286-1.051,1.7-2.281,2.63-3.428Z" transform="translate(-155.259 -78.344)" fill="#ddd"/>
    <path id="Path_37444" data-name="Path 37444" d="M802.994,1095.073l10.049-.613c1.7-1.832,2.5-4.41,5.134-5.177,6.1-1.777,18.105,2.328,24.826,7.9H803.219Q803.106,1096.127,802.994,1095.073Z" transform="translate(-188.587 -494.375)" fill="#ddd"/>
    <path id="Path_37445" data-name="Path 37445" d="M2595.279,1688.467c-3.1,8.516-7.948,11.467-17.527,10.175-8.167-1.1-7.594-4.591-5.93-7.938C2573.961,1686.4,2580.919,1685.786,2595.279,1688.467Z" transform="translate(-688.422 -862.004)" fill="#ddd"/>
    <path id="Path_37446" data-name="Path 37446" d="M733.213,465.687c-1.935-13.172,7.239-16.59,31.551-11.484Z" transform="translate(-168.787 -102.812)" fill="#ddd"/>
    <path id="Path_37447" data-name="Path 37447" d="M2067.805,339.562c-3.456.547-7.537.639-10.26,1.719-10.653,4.226-16.2,1.3-20.946-3.685,5.958-1.991,11.283-4.356,17.4-5.547,2.679-.522,7.8.916,10.292,2.271,2.2,1.2,2.275,3.514,3.29,5.336Z" transform="translate(-537.38 -29.038)" fill="#ddd"/>
    <path id="Path_37448" data-name="Path 37448" d="M693.895,368.114c5.975,2.316,11.47,3.993,15.749,6.315,1.845,1,1.175,3.339,1.648,5.07-4.365.088-8.925.628-13.03.116-3.039-.378-5.765-1.981-8.122-3.3a60.73,60.73,0,0,1-6.42-4.615Z" transform="translate(-154.863 -51.277)" fill="#ddd"/>
    <path id="Path_37449" data-name="Path 37449" d="M797.564,585.908c-4.775,1.739-8.513,3.248-12.52,4.51-2.74.863-5.856,1.382-8.8,2.055-1.652-2.264-4.312-4.5-4.564-6.8-.143-1.319,3.154-3.546,5.737-4C785.641,580.212,793.008,581.039,797.564,585.908Z" transform="translate(-179.732 -182.166)" fill="#ddd"/>
    <path id="Path_37450" data-name="Path 37450" d="M2074.871,351.83c11.092-.228,13.32,4.412,17.4,8.905-11.639,2.338-20.358-.011-29.887-2.825l12.7-6.169Z" transform="translate(-544.671 -41.212)" fill="#ddd"/>
    <path id="Path_37451" data-name="Path 37451" d="M2116.9,376.268c-4.744-2.342-10.288-4.233-9.8-4.991,1.624-2.494,6.053-6.607,8.28-6.412,5.211.459,9.767,3.059,14.588,4.793Z" transform="translate(-557.306 -49.276)" fill="#ddd"/>
    <path id="Path_37452" data-name="Path 37452" d="M2074.778,1184.075c12.571,3.538,14.166,7.606,12.776,11.98-.448,1.411-3.931,3.2-6.579,3.528-1.814.225-6.4-1.685-6.6-2.8C2073.726,1193.03,2074.484,1189.206,2074.778,1184.075Z" transform="translate(-547.989 -552.908)" fill="#ddd"/>
    <path id="Path_37453" data-name="Path 37453" d="M755.825,380.028c-5.01,2.253-8.492,4.887-10.831,4.621-3.512-.4-8.5-2.783-8.624-4.413-.115-1.579,4.73-4.171,8.154-4.608C746.929,375.321,750.6,377.879,755.825,380.028Z" transform="translate(-169.749 -55.881)" fill="#ddd"/>
    <path id="Path_37454" data-name="Path 37454" d="M2479.286,941.759c1.024,2.645,2.449,4.691,2.428,6.734-.021,1.965-1.536,3.927-2.394,5.89-1.976-1.27-3.892-2.57-5.941-3.8C2466.413,946.378,2466.686,945.81,2479.286,941.759Z" transform="translate(-659.584 -403.939)" fill="#ddd"/>
    <path id="Path_37455" data-name="Path 37455" d="M967.2,1811.7l-23.643,3.616v-6.343C951.451,1809.223,959.685,1804.988,967.2,1811.7Z" transform="translate(-228.332 -936.408)" fill="#ddd"/>
    <path id="Path_37456" data-name="Path 37456" d="M2408.241,1034.49c1.325,1.876,3.456,3.719,3.737,5.639.254,1.738-1.291,3.611-2.626,5.291-.2.246-4.787.089-5.357-.469-1.763-1.721-3.568-3.746-3.437-5.615.115-1.642,2.817-3.232,4.377-4.845Z" transform="translate(-640.285 -460.947)" fill="#ddd"/>
    <path id="Path_37457" data-name="Path 37457" d="M710.058,515.952c-1.694,1.529-2.83,3.944-5.216,4.379-3.51.64-7.914-.134-11.936-.306.6-1.612.264-4.118,2-4.638,3.038-.911,7.349-.769,11.113-.727,1.478.017,2.921.952,4.39,1.474Z" transform="translate(-157.461 -141.349)" fill="#ddd"/>
    <path id="Path_37458" data-name="Path 37458" d="M2445.7,426.574c7.094,0,12.785-.265,18.318.12,2.5.174,4.692,1.639,7.023,2.519-2.111.865-4.208,2.452-6.338,2.465C2457.419,431.72,2449.332,432.088,2445.7,426.574Z" transform="translate(-653.051 -87.162)" fill="#ddd"/>
    <path id="Path_37459" data-name="Path 37459" d="M647.635,376.675l-20.423,2.14-2.152-1.91c4.014-1.6,7.674-3.931,12.158-4.555,3.421-.476,7.886,1.215,11.887,1.942Q648.371,375.483,647.635,376.675Z" transform="translate(-138.278 -53.83)" fill="#ddd"/>
    <path id="Path_37460" data-name="Path 37460" d="M2406.489,1169.548c-3.77,4.242-7.539,8.485-12.283,13.825-4.2-5.277-4.2-5.277,8.325-14.706Z" transform="translate(-637.78 -543.435)" fill="#ddd"/>
    <path id="Path_37461" data-name="Path 37461" d="M2671.7,1314.4c2,6.391-2.041,9.653-10.05,9.088a9.791,9.791,0,0,1-5.272-2.129c-.431-.4,1.716-1.908,3.234-2.528,1.871-.765,4.438-1.021,6.462-1.7A51.952,51.952,0,0,0,2671.7,1314.4Z" transform="translate(-712.602 -633.027)" fill="#ddd"/>
    <path id="Path_37462" data-name="Path 37462" d="M2318.637,1085.236c6.592,3.633,4.074,6.556-.822,8.949-1.224.6-6.747.106-7.234-.544C2307.579,1089.624,2311.626,1087.172,2318.637,1085.236Z" transform="translate(-614.563 -492.144)" fill="#ddd"/>
    <path id="Path_37463" data-name="Path 37463" d="M2707.206,491.326c3.983-6.071,8.862-8.2,16.831-6.722,1.471.273,1.7,2.469,2.509,3.777Z" transform="translate(-726.989 -122.614)" fill="#ddd"/>
    <path id="Path_37464" data-name="Path 37464" d="M2482.165,1261.751c-11.957-2.833-11.975-3.541,0-13.417Z" transform="translate(-660.823 -592.412)" fill="#ddd"/>
    <path id="Path_37465" data-name="Path 37465" d="M646.8,391.663c-.048,6.943-12.68,4-16.739,7.758C627.182,392.8,627.182,392.8,646.8,391.663Z" transform="translate(-139.303 -65.755)" fill="#ddd"/>
    <path id="Path_37466" data-name="Path 37466" d="M2427.785,1359.875l-20.974,6.174C2414.019,1356.855,2416.86,1356.035,2427.785,1359.875Z" transform="translate(-642.055 -659.656)" fill="#ddd"/>
    <path id="Path_37467" data-name="Path 37467" d="M2684.487,1302.721l-10.034-9.844C2688.026,1293.349,2691.43,1296.65,2684.487,1302.721Z" transform="translate(-717.729 -619.796)" fill="#ddd"/>
    <path id="Path_37468" data-name="Path 37468" d="M2531.01,1292.264c3.806-8.256,4.7-8.443,18.891-4.354Z" transform="translate(-677.171 -615.137)" fill="#ddd"/>
    <path id="Path_37469" data-name="Path 37469" d="M2769.54,1479.552c13.025-2.407,16.58-.985,15.318,6.057Z" transform="translate(-744.613 -733.893)" fill="#ddd"/>
    <path id="Path_37470" data-name="Path 37470" d="M738.5,437.557c-1.043-1.576-3.622-3.5-2.731-4.637,1.066-1.363,4.939-2.588,7.9-2.845,1.841-.159,5.935,1.532,6.045,2.492.2,1.759-1.793,3.59-2.873,5.392Z" transform="translate(-169.529 -89.363)" fill="#ddd"/>
    <path id="Path_37471" data-name="Path 37471" d="M734.116,351.424l9.611,3.647L736,358.111l-6.008-4.485Z" transform="translate(-167.946 -41.017)" fill="#ddd"/>
    <path id="Path_37472" data-name="Path 37472" d="M2445.207,1150.715l-13.906-3.432c1.425-1.091,2.647-3.01,4.308-3.127C2441.861,1143.717,2445.659,1145.279,2445.207,1150.715Z" transform="translate(-648.979 -528.324)" fill="#ddd"/>
    <path id="Path_37473" data-name="Path 37473" d="M1028.824,519.136l-18.091,1.163c3.091-2.449,4.377-4.526,6.138-4.649,3.931-.275,8.1.424,12.169.726Q1028.932,517.756,1028.824,519.136Z" transform="translate(-247.324 -141.94)" fill="#ddd"/>
    <path id="Path_37474" data-name="Path 37474" d="M843.642,548.9l5.782-5.9c1.838.637,5.377,1.714,5.259,1.845a69.553,69.553,0,0,1-6.038,5.56Z" transform="translate(-200.08 -158.791)" fill="#ddd"/>
    <path id="Path_37475" data-name="Path 37475" d="M1481.95,880.592c-3.325-6.425-3.021-6.821,7.269-7.094-1.311,2.754-2.486,5.22-3.66,7.686Z" transform="translate(-380.024 -361.974)" fill="#ddd"/>
    <path id="Path_37476" data-name="Path 37476" d="M2411.929,1147.655l10.077,4.515-.64,1.346c-3.371,0-7.5.631-9.882-.193-2.036-.7-2.074-3.075-3-4.709Z" transform="translate(-642.529 -530.518)" fill="#ddd"/>
    <path id="Path_37477" data-name="Path 37477" d="M786.573,1109.1c-4.557,0-9.121.049-13.657-.115-.291-.011-.372-1.679-.551-2.576l14-.369Q786.47,1107.574,786.573,1109.1Z" transform="translate(-179.927 -504.936)" fill="#ddd"/>
  </g>
</svg>
