<svg xmlns="http://www.w3.org/2000/svg" xmlns:xlink="http://www.w3.org/1999/xlink" width="166.689" height="157.754" viewBox="0 0 166.689 157.754">
  <defs>
    <linearGradient id="linear-gradient" x1="0.5" x2="0.5" y2="1" gradientUnits="objectBoundingBox">
      <stop offset="0" stop-color="#41a8de"/>
      <stop offset="1" stop-color="#007fff"/>
    </linearGradient>
  </defs>
  <g id="Group_19939" data-name="Group 19939" transform="translate(-1350.671 -2943.422)">
    <path id="blob_3_" data-name="blob (3)" d="M98.906,22.072c0,27.708-41.638,65.561-74.04,65.561C-7.385,87.633-30.4,49.78-30.4,22.072S-7.385-23.2,24.865-23.2C57.267-23.2,98.906-5.636,98.906,22.072Z" transform="translate(1382.4 2990.2)" fill="url(#linear-gradient)"/>
    <path id="blob_3_2" data-name="blob (3)" d="M129.306,45.272c0,27.708-41.638,65.561-74.04,65.561C23.015,110.833,0,72.98,0,45.272S23.015,0,55.265,0C87.667,0,129.306,17.564,129.306,45.272Z" transform="translate(1398.84 2944.75) rotate(25)" fill="none" stroke="#fff" stroke-width="2"/>
    <g id="svgexport-6_-_2022-03-06T135743.484" data-name="svgexport-6 - 2022-03-06T135743.484" transform="translate(1372 2961.89)">
      <g id="Group_17079" data-name="Group 17079" transform="translate(5 30.11)">
        <g id="Group_17078" data-name="Group 17078" transform="translate(0 0)">
          <path id="Path_37492" data-name="Path 37492" d="M233.1,191.141h-33a1.04,1.04,0,1,0,0,2.08h33a1.04,1.04,0,0,0,0-2.08Z" transform="translate(-171.452 -168.811)" fill="#fff"/>
          <path id="Path_37493" data-name="Path 37493" d="M233.1,248.474h-33a1.04,1.04,0,1,0,0,2.08h33a1.04,1.04,0,0,0,0-2.08Z" transform="translate(-171.452 -218.193)" fill="#fff"/>
          <path id="Path_37494" data-name="Path 37494" d="M233.1,305.807h-33a1.04,1.04,0,1,0,0,2.08h33a1.04,1.04,0,0,0,0-2.08Z" transform="translate(-171.452 -267.576)" fill="#fff"/>
          <path id="Path_37495" data-name="Path 37495" d="M184.77,125.549H145.159a6.056,6.056,0,0,0-6.049,6.049v24.908a6.056,6.056,0,0,0,6.049,6.049h27.764a.959.959,0,0,1,.757.367l8.966,11.351a1.787,1.787,0,0,0,1.409.691,1.841,1.841,0,0,0,.605-.1,1.788,1.788,0,0,0,1.216-1.71v-10.7a6.077,6.077,0,0,0,4.944-5.946V131.6A6.056,6.056,0,0,0,184.77,125.549Zm3.969,30.957a3.983,3.983,0,0,1-3.917,3.967,1.04,1.04,0,0,0-1.027,1.04v10.859l-8.483-10.74a3.027,3.027,0,0,0-2.389-1.158H145.159a3.974,3.974,0,0,1-3.969-3.969V131.6a3.974,3.974,0,0,1,3.969-3.969H184.77a3.974,3.974,0,0,1,3.969,3.969Z" transform="translate(-119.819 -112.314)" fill="#fff"/>
          <path id="Path_37496" data-name="Path 37496" d="M15.322,60.542a2.773,2.773,0,0,0-1.794,1.031L6.384,70.618V61.553a1.04,1.04,0,0,0-1.027-1.04A3.332,3.332,0,0,1,2.08,57.193V35.511A3.324,3.324,0,0,1,5.4,32.19H39.883a3.324,3.324,0,0,1,3.32,3.32v4.012a1.04,1.04,0,0,0,2.08,0V35.511a5.407,5.407,0,0,0-5.4-5.4H5.4a5.407,5.407,0,0,0-5.4,5.4V57.193A5.426,5.426,0,0,0,4.3,62.48v9.2A1.69,1.69,0,0,0,5.453,73.3a1.741,1.741,0,0,0,.572.1,1.689,1.689,0,0,0,1.331-.653l7.805-9.881a.7.7,0,0,1,.454-.261,1.04,1.04,0,0,0-.292-2.059Z" transform="translate(0 -30.11)" fill="#fff"/>
        </g>
      </g>
    </g>
  </g>
</svg>
