<svg xmlns="http://www.w3.org/2000/svg" width="166.689" height="157.754" viewBox="0 0 166.689 157.754">
  <g id="Group_19937" data-name="Group 19937" transform="translate(-635.671 -2943.422)">
    <g id="Group_16983" data-name="Group 16983" transform="translate(637 2944.75)">
      <path id="blob_3_" data-name="blob (3)" d="M98.906,22.072c0,27.708-41.638,65.561-74.04,65.561C-7.385,87.633-30.4,49.78-30.4,22.072S-7.385-23.2,24.865-23.2C57.267-23.2,98.906-5.636,98.906,22.072Z" transform="translate(30.4 45.45)" fill="#5ec672"/>
      <path id="blob_3_2" data-name="blob (3)" d="M129.306,45.272c0,27.708-41.638,65.561-74.04,65.561C23.015,110.833,0,72.98,0,45.272S23.015,0,55.265,0C87.667,0,129.306,17.564,129.306,45.272Z" transform="translate(46.84 0) rotate(25)" fill="none" stroke="#fff" stroke-width="2"/>
    </g>
    <g id="svgexport-6_79_" data-name="svgexport-6 (79)" transform="translate(669.471 2989.472)">
      <g id="layer1" transform="translate(0.529 0.528)">
        <path id="path3032" d="M13.352,280.6a1.069,1.069,0,0,0-1.065,1.073v9.619H3.736a3.223,3.223,0,0,0-3.206,3.206v2.137a1.069,1.069,0,1,0,2.137,0v-2.137a1.044,1.044,0,0,1,1.069-1.069h8.552v2.138H5.873A1.069,1.069,0,0,0,4.8,296.631v29.925a1.069,1.069,0,0,0,1.069,1.069H59.31a1.069,1.069,0,0,0,1.069-1.069V296.631a1.069,1.069,0,0,0-1.069-1.069H52.9v-2.138h8.546a1.044,1.044,0,0,1,1.069,1.069v38.475a1.044,1.044,0,0,1-1.069,1.069H3.736a1.044,1.044,0,0,1-1.069-1.069V306.249a1.069,1.069,0,1,0-2.137,0v26.719a3.223,3.223,0,0,0,3.206,3.206H26.048a14.021,14.021,0,0,1-3.544,6.41H19.765a1.069,1.069,0,0,0,0,2.138h25.65a1.069,1.069,0,0,0,0-2.138H42.68a13.994,13.994,0,0,1-3.58-6.41H61.448a3.223,3.223,0,0,0,3.206-3.206V294.493a3.223,3.223,0,0,0-3.206-3.206H52.9v-9.619a1.069,1.069,0,0,0-1.073-1.073H42.212a1.069,1.069,0,0,0-1.075,1.073v5.342H33.658v-2.137a1.073,1.073,0,0,0-1.017-1.065h-8.6v-2.14a1.069,1.069,0,0,0-1.073-1.073Zm1.073,2.14H21.9v4.275H14.425Zm28.852,0h7.487v23.519H43.277Zm-19.235,3.211h7.479v20.308H24.042Zm-9.617,3.2H21.9v2.137H14.425Zm19.233,0h7.479v4.279H33.658Zm-19.233,4.275H21.9v23.51H14.425Zm19.233,2.142h7.479V297.7H33.658ZM6.942,297.7h5.346v19.235H10.15a1.069,1.069,0,0,0-1.075,1.073v4.277a1.069,1.069,0,0,0,1.075,1.065H55.031a1.069,1.069,0,0,0,1.073-1.065v-4.277a1.069,1.069,0,0,0-1.073-1.073H52.9V297.7h5.34v27.787H6.942Zm-5.36,2.123a1.068,1.068,0,0,0-1.052,1.083v1.069a1.069,1.069,0,1,0,2.137,0v-1.069a1.068,1.068,0,0,0-1.085-1.083Zm32.077.012h7.479v17.1H33.658Zm-9.617,8.558h7.479v2.129H24.042Zm19.235,0h7.487v2.129H43.277Zm-19.235,4.267h7.479v4.277H24.042Zm19.235,0h7.487v4.277H43.277Zm-32.062,6.413H53.966v2.14H11.215ZM30.452,329.76a1.069,1.069,0,1,0,0,2.137h4.275a1.069,1.069,0,1,0,0-2.137Zm-2.2,6.415h8.7a13.729,13.729,0,0,0,2.962,6.41H25.271a13.485,13.485,0,0,0,2.977-6.41Z" transform="translate(-0.529 -280.595)" fill="#fff"/>
      </g>
    </g>
  </g>
</svg>
