<svg xmlns="http://www.w3.org/2000/svg" width="93.553" height="87.533" viewBox="0 0 93.553 87.533">
  <g id="svgexport-6_-_2022-03-23T112103.074" data-name="svgexport-6 - 2022-03-23T112103.074" transform="translate(0 0)">
    <path id="Path_37987" data-name="Path 37987" d="M337.635,232.473v41.782c0,1.808-1.084,3.273-2.421,3.273H298.652V240.076l6.347-7.6Zm0,0" transform="translate(-244.082 -189.995)" fill="#fc9086"/>
    <path id="Path_37988" data-name="Path 37988" d="M335.215,114.41H301.5a2.851,2.851,0,0,0-2.851,2.851v3.106a2.859,2.859,0,0,0,3.228,2.825,6.119,6.119,0,1,1-.052,12.137,2.836,2.836,0,0,0-3.176,2.832v9.563h10.666a2.865,2.865,0,0,0,2.794-3.39,6.119,6.119,0,1,1,12.051.079,2.836,2.836,0,0,0,2.813,3.311h10.66V116.83a2.421,2.421,0,0,0-2.421-2.42Zm0,0" transform="translate(-244.082 -93.505)" fill="#5e8ee1"/>
    <path id="Path_37989" data-name="Path 37989" d="M469.961,245.773V285.3c0,1.71-1.084,3.1-2.422,3.1h5.7c1.337,0,2.421-1.387,2.421-3.1V245.773Zm0,0" transform="translate(-382.11 -200.865)" fill="#f57a73"/>
    <path id="Path_37990" data-name="Path 37990" d="M473.245,114.41h-5.7a2.421,2.421,0,0,1,2.421,2.421v30.893h5.7V116.83a2.421,2.421,0,0,0-2.421-2.42Zm0,0" transform="translate(-382.113 -93.505)" fill="#467bff"/>
    <path id="Path_37991" data-name="Path 37991" d="M42.955,10.553a6.319,6.319,0,0,0-.862,0,2.87,2.87,0,0,1-3.11-2.839V2.851A2.851,2.851,0,0,0,36.132,0H2.421A2.421,2.421,0,0,0,0,2.421V30.463a2.851,2.851,0,0,0,2.851,2.851h7.754a2.86,2.86,0,0,1,2.821,3.258,6.245,6.245,0,0,0-.041,1.193,6.119,6.119,0,1,0,12.166-1.246,2.851,2.851,0,0,1,2.851-3.2h7.731a2.851,2.851,0,0,0,2.851-2.851V25.6a2.839,2.839,0,0,1,3.045-2.844c.163.013.328.019.495.019a6.119,6.119,0,0,0,.433-12.223Zm0,0" transform="translate(0 0)" fill="#ffe056"/>
    <path id="Path_37992" data-name="Path 37992" d="M184.732,16.229a6.141,6.141,0,0,0-5.672-5.676,6.321,6.321,0,0,0-.862,0,2.87,2.87,0,0,1-3.11-2.839V2.851A2.851,2.851,0,0,0,172.237,0h-5.7a2.852,2.852,0,0,1,2.851,2.851V7.714a2.87,2.87,0,0,0,3.11,2.839,6.321,6.321,0,0,1,.862,0,6.119,6.119,0,0,1-.433,12.222c-.167,0-.331-.006-.495-.02a2.841,2.841,0,0,0-3.045,2.844v4.863a2.851,2.851,0,0,1-2.851,2.851h5.7a2.851,2.851,0,0,0,2.851-2.851V25.6a2.84,2.84,0,0,1,3.044-2.844q.245.02.495.02A6.12,6.12,0,0,0,184.732,16.229Zm0,0" transform="translate(-136.105)" fill="#f9cd45"/>
    <path id="Path_37993" data-name="Path 37993" d="M127.889,307.852c-.206-.014-.41-.016-.612-.01a2.865,2.865,0,0,1-2.989-2.847v-8.264h-12.4a2.832,2.832,0,0,0-2.843,3.06,7.106,7.106,0,0,1-1.317,4.388,2.8,2.8,0,0,1-.752.75c-4.924,3.323-10.16-.127-10.16-4.8,0-.122,0-.244.011-.364a2.855,2.855,0,0,0-2.844-3.036H88.156a2.851,2.851,0,0,0-2.851,2.851v28.042a2.421,2.421,0,0,0,2.421,2.421h36.562V322.92a2.831,2.831,0,0,1,2.918-2.85c.091,0,.183.006.275.006a6.119,6.119,0,0,0,.409-12.225Zm0,0" transform="translate(-69.717 -242.512)" fill="#9ddbdf"/>
  </g>
</svg>
