<svg xmlns="http://www.w3.org/2000/svg" width="538.836" height="541.914" viewBox="0 0 538.836 541.914">
  <g id="Group_19943" data-name="Group 19943" transform="translate(-1499.5 -3445.193)">
    <path id="blob_5_" data-name="blob (5)" d="M376.545,31c51.688,32.489,87.13,94.514,103.867,164.416,17.229,69.409,15.26,146.2-28.059,178.691C409.527,406.6,324.858,395.276,257.418,413c-67.932,17.229-119.128,63.994-172.784,66.948C30.977,482.407-25.141,440.564-34,389.369-42.863,337.681-4.466,276.641-10.373,189.51S-66.983-10.348-40.893-46.776c25.6-36.92,127.988,2.954,213.15,23.629C256.925-2.472,324.858-1,376.545,31Z" transform="translate(1547.806 3507.058)" fill="#cbe5ff" opacity="0.46"/>
    <g id="Group_19911" data-name="Group 19911" transform="translate(1794 3578.254)" opacity="0.27">
      <path id="Path_34979" data-name="Path 34979" d="M9.112,4.556A4.556,4.556,0,1,0,4.556,9.112,4.556,4.556,0,0,0,9.112,4.556Z" transform="matrix(-0.017, -1, 1, -0.017, 1.737, 157.063)" fill="#087ad7"/>
      <path id="Path_34980" data-name="Path 34980" d="M9.112,4.556A4.556,4.556,0,1,0,4.556,9.112,4.556,4.556,0,0,0,9.112,4.556Z" transform="matrix(-0.017, -1, 1, -0.017, 1.228, 127.894)" fill="#087ad7"/>
      <path id="Path_34981" data-name="Path 34981" d="M9.112,4.556A4.556,4.556,0,1,0,4.556,9.112,4.556,4.556,0,0,0,9.112,4.556Z" transform="matrix(-0.017, -1, 1, -0.017, 0.721, 98.826)" fill="#087ad7"/>
      <path id="Path_34982" data-name="Path 34982" d="M9.163,4.607A4.581,4.581,0,1,0,4.581,9.163,4.582,4.582,0,0,0,9.163,4.607Z" transform="matrix(-0.017, -1, 1, -0.017, 0.16, 69.582)" fill="#087ad7"/>
      <path id="Path_34983" data-name="Path 34983" d="M9.112,4.556A4.556,4.556,0,1,0,4.556,9.112,4.556,4.556,0,0,0,9.112,4.556Z" transform="matrix(-0.017, -1, 1, -0.017, 29.704, 185.753)" fill="#087ad7"/>
      <path id="Path_34984" data-name="Path 34984" d="M9.112,4.556A4.556,4.556,0,1,0,4.556,9.112,4.556,4.556,0,0,0,9.112,4.556Z" transform="matrix(-0.017, -1, 1, -0.017, 29.195, 156.584)" fill="#087ad7"/>
      <path id="Path_34985" data-name="Path 34985" d="M9.112,4.556A4.556,4.556,0,1,0,4.556,9.112,4.556,4.556,0,0,0,9.112,4.556Z" transform="matrix(-0.017, -1, 1, -0.017, 28.686, 127.415)" fill="#087ad7"/>
      <path id="Path_34986" data-name="Path 34986" d="M9.112,4.556A4.556,4.556,0,1,0,4.556,9.112,4.556,4.556,0,0,0,9.112,4.556Z" transform="matrix(-0.017, -1, 1, -0.017, 28.179, 98.346)" fill="#087ad7"/>
      <path id="Path_34987" data-name="Path 34987" d="M9.163,4.606A4.581,4.581,0,1,0,4.581,9.163,4.581,4.581,0,0,0,9.163,4.606Z" transform="matrix(-0.017, -1, 1, -0.017, 27.618, 69.103)" fill="#087ad7"/>
      <path id="Path_34988" data-name="Path 34988" d="M9.163,4.606A4.581,4.581,0,1,0,4.607,9.162,4.581,4.581,0,0,0,9.163,4.606Z" transform="matrix(-0.017, -1, 1, -0.017, 27.109, 39.934)" fill="#087ad7"/>
      <path id="Path_34989" data-name="Path 34989" d="M9.112,4.556A4.556,4.556,0,1,0,4.556,9.112,4.556,4.556,0,0,0,9.112,4.556Z" transform="matrix(-0.017, -1, 1, -0.017, 57.389, 185.27)" fill="#087ad7"/>
      <path id="Path_34990" data-name="Path 34990" d="M9.112,4.556A4.556,4.556,0,1,0,4.556,9.112,4.556,4.556,0,0,0,9.112,4.556Z" transform="matrix(-0.017, -1, 1, -0.017, 56.879, 156.101)" fill="#087ad7"/>
      <path id="Path_34991" data-name="Path 34991" d="M9.112,4.556A4.556,4.556,0,1,0,4.556,9.112,4.556,4.556,0,0,0,9.112,4.556Z" transform="matrix(-0.017, -1, 1, -0.017, 56.37, 126.932)" fill="#087ad7"/>
      <path id="Path_34992" data-name="Path 34992" d="M9.112,4.556A4.556,4.556,0,1,0,4.556,9.112,4.556,4.556,0,0,0,9.112,4.556Z" transform="matrix(-0.017, -1, 1, -0.017, 55.863, 97.863)" fill="#087ad7"/>
      <path id="Path_34993" data-name="Path 34993" d="M9.163,4.607A4.581,4.581,0,1,0,4.581,9.163,4.582,4.582,0,0,0,9.163,4.607Z" transform="matrix(-0.017, -1, 1, -0.017, 55.302, 68.619)" fill="#087ad7"/>
      <path id="Path_34994" data-name="Path 34994" d="M9.163,4.606A4.581,4.581,0,1,0,4.607,9.162,4.581,4.581,0,0,0,9.163,4.606Z" transform="matrix(-0.017, -1, 1, -0.017, 54.793, 39.45)" fill="#087ad7"/>
      <path id="Path_34995" data-name="Path 34995" d="M9.112,4.556A4.556,4.556,0,1,0,4.556,9.112,4.556,4.556,0,0,0,9.112,4.556Z" transform="matrix(-0.017, -1, 1, -0.017, 85.356, 213.96)" fill="#087ad7"/>
      <path id="Path_34996" data-name="Path 34996" d="M9.112,4.556A4.556,4.556,0,1,0,4.556,9.112,4.556,4.556,0,0,0,9.112,4.556Z" transform="matrix(-0.017, -1, 1, -0.017, 84.846, 184.791)" fill="#087ad7"/>
      <path id="Path_34997" data-name="Path 34997" d="M9.112,4.556A4.556,4.556,0,1,0,4.556,9.112,4.556,4.556,0,0,0,9.112,4.556Z" transform="matrix(-0.017, -1, 1, -0.017, 84.337, 155.622)" fill="#087ad7"/>
      <path id="Path_34998" data-name="Path 34998" d="M9.112,4.556A4.556,4.556,0,1,0,4.556,9.112,4.556,4.556,0,0,0,9.112,4.556Z" transform="matrix(-0.017, -1, 1, -0.017, 83.828, 126.452)" fill="#087ad7"/>
      <path id="Path_34999" data-name="Path 34999" d="M9.112,4.556A4.556,4.556,0,1,0,4.556,9.112,4.556,4.556,0,0,0,9.112,4.556Z" transform="matrix(-0.017, -1, 1, -0.017, 83.321, 97.384)" fill="#087ad7"/>
      <path id="Path_35000" data-name="Path 35000" d="M9.163,4.607A4.581,4.581,0,1,0,4.581,9.163,4.582,4.582,0,0,0,9.163,4.607Z" transform="matrix(-0.017, -1, 1, -0.017, 82.76, 68.14)" fill="#087ad7"/>
      <path id="Path_35001" data-name="Path 35001" d="M9.163,4.606A4.581,4.581,0,1,0,4.607,9.162,4.581,4.581,0,0,0,9.163,4.606Z" transform="matrix(-0.017, -1, 1, -0.017, 82.251, 38.971)" fill="#087ad7"/>
      <path id="Path_35002" data-name="Path 35002" d="M9.163,4.606A4.581,4.581,0,1,0,4.607,9.162,4.581,4.581,0,0,0,9.163,4.606Z" transform="matrix(-0.017, -1, 1, -0.017, 81.742, 9.802)" fill="#087ad7"/>
      <path id="Path_35003" data-name="Path 35003" d="M9.112,4.556A4.556,4.556,0,1,0,4.556,9.112,4.556,4.556,0,0,0,9.112,4.556Z" transform="matrix(-0.017, -1, 1, -0.017, 112.889, 213.479)" fill="#087ad7"/>
      <path id="Path_35004" data-name="Path 35004" d="M9.112,4.556A4.556,4.556,0,1,0,4.556,9.112,4.556,4.556,0,0,0,9.112,4.556Z" transform="matrix(-0.017, -1, 1, -0.017, 112.38, 184.31)" fill="#087ad7"/>
      <path id="Path_35005" data-name="Path 35005" d="M9.112,4.556A4.556,4.556,0,1,0,4.556,9.112,4.556,4.556,0,0,0,9.112,4.556Z" transform="matrix(-0.017, -1, 1, -0.017, 111.871, 155.141)" fill="#087ad7"/>
      <path id="Path_35006" data-name="Path 35006" d="M9.112,4.556A4.556,4.556,0,1,0,4.556,9.112,4.556,4.556,0,0,0,9.112,4.556Z" transform="matrix(-0.017, -1, 1, -0.017, 111.361, 125.972)" fill="#087ad7"/>
      <path id="Path_35007" data-name="Path 35007" d="M9.112,4.556A4.556,4.556,0,1,0,4.556,9.112,4.556,4.556,0,0,0,9.112,4.556Z" transform="matrix(-0.017, -1, 1, -0.017, 110.854, 96.903)" fill="#087ad7"/>
      <path id="Path_35008" data-name="Path 35008" d="M9.163,4.606A4.581,4.581,0,1,0,4.581,9.163,4.582,4.582,0,0,0,9.163,4.606Z" transform="matrix(-0.017, -1, 1, -0.017, 110.293, 67.659)" fill="#087ad7"/>
      <path id="Path_35009" data-name="Path 35009" d="M9.163,4.606A4.581,4.581,0,1,0,4.607,9.162,4.581,4.581,0,0,0,9.163,4.606Z" transform="matrix(-0.017, -1, 1, -0.017, 109.784, 38.49)" fill="#087ad7"/>
      <path id="Path_35010" data-name="Path 35010" d="M9.163,4.606A4.581,4.581,0,1,0,4.607,9.162,4.581,4.581,0,0,0,9.163,4.606Z" transform="matrix(-0.017, -1, 1, -0.017, 109.275, 9.321)" fill="#087ad7"/>
    </g>
  </g>
</svg>
