<svg xmlns="http://www.w3.org/2000/svg" width="166.689" height="157.754" viewBox="0 0 166.689 157.754">
  <g id="Group_19937" data-name="Group 19937" transform="translate(-754.671 -839.046)">
    <g id="Group_16983" data-name="Group 16983" transform="translate(756 840.375)">
      <path id="blob_3_" data-name="blob (3)" d="M98.906,22.072c0,27.708-41.638,65.561-74.04,65.561C-7.385,87.633-30.4,49.78-30.4,22.072S-7.385-23.2,24.865-23.2C57.267-23.2,98.906-5.636,98.906,22.072Z" transform="translate(30.4 45.449)" fill="#5ec672"/>
      <path id="blob_3_2" data-name="blob (3)" d="M129.306,45.272c0,27.708-41.638,65.561-74.04,65.561C23.015,110.833,0,72.98,0,45.272S23.015,0,55.265,0C87.667,0,129.306,17.564,129.306,45.272Z" transform="translate(46.84 0) rotate(25)" fill="none" stroke="#fff" stroke-width="2"/>
    </g>
    <g id="svgexport-6_-_2022-03-07T153058.671" data-name="svgexport-6 - 2022-03-07T153058.671" transform="translate(779.888 889.625)">
      <g id="Group_17095" data-name="Group 17095" transform="translate(17.112 0)">
        <path id="Path_37545" data-name="Path 37545" d="M64.985,14.689c-.029-1.54-.057-3-.057-4.4a2,2,0,0,0-2-2c-8.54,0-15.041-2.454-20.461-7.724a2,2,0,0,0-2.784,0c-5.419,5.269-11.92,7.724-20.459,7.724a2,2,0,0,0-2,2c0,1.408-.028,2.863-.057,4.4-.274,14.333-.649,33.963,23.251,42.247a1.995,1.995,0,0,0,1.308,0C65.633,48.653,65.259,29.022,64.985,14.689ZM41.078,52.932c-20.5-7.446-20.187-23.757-19.912-38.166.017-.865.032-1.7.044-2.524,8-.338,14.393-2.761,19.868-7.531,5.475,4.769,11.872,7.193,19.87,7.531.011.821.027,1.659.044,2.523C61.267,29.174,61.577,45.486,41.078,52.932Z" transform="translate(-17.112 0)" fill="#fff"/>
        <path id="Path_37546" data-name="Path 37546" d="M85.668,79.47,76.03,89.108l-4.113-4.113a2,2,0,0,0-2.824,2.824l5.524,5.524a2,2,0,0,0,2.824,0L88.491,82.294a2,2,0,1,0-2.823-2.824Z" transform="translate(-54.825 -57.883)" fill="#fff"/>
      </g>
    </g>
  </g>
</svg>
