<svg xmlns="http://www.w3.org/2000/svg" width="104.689" height="99.131" viewBox="0 0 104.689 99.131">
  <g id="Group_17110" data-name="Group 17110" transform="translate(-251.671 -3281.808)">
    <g id="Group_16983" data-name="Group 16983" transform="translate(253 3283.137)">
      <path id="blob_3_" data-name="blob (3)" d="M50.031,4.96c0,17.235-25.9,40.781-46.055,40.781C-16.084,45.741-30.4,22.2-30.4,4.96S-16.084-23.2,3.976-23.2C24.131-23.2,50.031-12.275,50.031,4.96Z" transform="translate(30.4 37.04)" fill="#f86e70"/>
      <path id="blob_3_2" data-name="blob (3)" d="M80.431,28.16c0,17.235-25.9,40.781-46.055,40.781C14.316,68.941,0,45.4,0,28.16S14.316,0,34.376,0C54.531,0,80.431,10.925,80.431,28.16Z" transform="translate(29.136 0) rotate(25)" fill="none" stroke="#fff" stroke-width="2"/>
    </g>
    <g id="svgexport-6_-_2022-03-08T131118.062" data-name="svgexport-6 - 2022-03-08T131118.062" transform="translate(277 3315.332)">
      <path id="Path_37554" data-name="Path 37554" d="M5.628,24.746a2.609,2.609,0,0,0-1.261.322A14.756,14.756,0,0,1,18.937,1.542.625.625,0,0,0,19.184.317,16.119,16.119,0,0,0,16,0,16,16,0,0,0,3.443,25.915a2.626,2.626,0,1,0,2.185-1.169Zm.972,3.6a1.375,1.375,0,1,1,.4-.972A1.365,1.365,0,0,1,6.6,28.343Zm0,0" transform="translate(0)" fill="#fff"/>
      <path id="Path_37555" data-name="Path 37555" d="M213.7,36.131a2.62,2.62,0,1,0-.924.848A14.756,14.756,0,0,1,198.231,60.51a.625.625,0,1,0-.245,1.226,16.129,16.129,0,0,0,3.155.311A16,16,0,0,0,213.7,36.131Zm-3.157-.483a1.375,1.375,0,1,1,.972.4,1.366,1.366,0,0,1-.972-.4Zm0,0" transform="translate(-185.142 -30.048)" fill="#fff"/>
      <path id="Path_37556" data-name="Path 37556" d="M82.781,96.125a.625.625,0,0,0,.625.625h3.908a.625.625,0,0,0,.625-.625V94.913a9.787,9.787,0,0,0,2.346-.972l.855.855a.625.625,0,0,0,.884,0l2.762-2.764a.625.625,0,0,0,0-.884l-.854-.854a9.787,9.787,0,0,0,.972-2.346h1.207a.625.625,0,0,0,.625-.625V83.415a.625.625,0,0,0-.625-.625H94.9a9.789,9.789,0,0,0-.972-2.345l.85-.85a.625.625,0,0,0,0-.884l-2.764-2.762a.625.625,0,0,0-.884,0l-.849.849a9.787,9.787,0,0,0-2.346-.972v-1.2A.625.625,0,0,0,87.314,74H83.406a.625.625,0,0,0-.625.625v1.2a9.779,9.779,0,0,0-2.345.972l-.849-.849a.625.625,0,0,0-.884,0l-2.764,2.762a.625.625,0,0,0,0,.884l.85.85a9.785,9.785,0,0,0-.972,2.345h-1.2a.625.625,0,0,0-.625.625l0,3.908a.625.625,0,0,0,.625.625h1.207a9.787,9.787,0,0,0,.972,2.346l-.854.854a.625.625,0,0,0,0,.884L78.7,94.8a.625.625,0,0,0,.442.183h0a.625.625,0,0,0,.442-.183l.855-.855a9.8,9.8,0,0,0,2.346.972Zm-2.1-3.5a.625.625,0,0,0-.781.083l-.761.761-1.879-1.88.76-.76a.625.625,0,0,0,.083-.781,8.555,8.555,0,0,1-1.184-2.857.625.625,0,0,0-.611-.494H75.234V84.04h1.072a.625.625,0,0,0,.611-.494A8.556,8.556,0,0,1,78.1,80.69a.625.625,0,0,0-.083-.781l-.755-.756,1.88-1.879.755.755a.625.625,0,0,0,.781.083,8.551,8.551,0,0,1,2.857-1.184.625.625,0,0,0,.494-.611V75.25h2.658v1.067a.625.625,0,0,0,.494.611,8.558,8.558,0,0,1,2.857,1.184.624.624,0,0,0,.781-.083l.755-.755,1.88,1.879-.755.755a.625.625,0,0,0-.083.781A8.56,8.56,0,0,1,93.8,83.546a.625.625,0,0,0,.611.494h1.074V86.7H94.412a.625.625,0,0,0-.611.494,8.553,8.553,0,0,1-1.184,2.857.625.625,0,0,0,.083.781l.76.76-1.879,1.88-.761-.761a.625.625,0,0,0-.781-.083,8.561,8.561,0,0,1-2.857,1.184.625.625,0,0,0-.494.611V95.5H84.031V94.421a.625.625,0,0,0-.494-.611,8.555,8.555,0,0,1-2.857-1.184Zm0,0" transform="translate(-69.361 -69.376)" fill="#fff"/>
      <path id="Path_37557" data-name="Path 37557" d="M183.7,178.535a5.164,5.164,0,1,0-5.164,5.164A5.17,5.17,0,0,0,183.7,178.535Zm-9.078,0a3.914,3.914,0,1,1,3.914,3.914A3.919,3.919,0,0,1,174.621,178.535Zm0,0" transform="translate(-162.536 -162.536)" fill="#fff"/>
      <path id="Path_37558" data-name="Path 37558" d="M338.7,19.059a.626.626,0,1,0-.442-.183A.63.63,0,0,0,338.7,19.059Zm0,0" transform="translate(-316.949 -16.696)" fill="#fff"/>
      <path id="Path_37559" data-name="Path 37559" d="M154.984,474.359a.625.625,0,1,0,.442.183A.63.63,0,0,0,154.984,474.359Zm0,0" transform="translate(-144.712 -444.713)" fill="#fff"/>
    </g>
  </g>
</svg>
