<svg xmlns="http://www.w3.org/2000/svg" width="166.689" height="157.754" viewBox="0 0 166.689 157.754">
  <g id="Group_19936" data-name="Group 19936" transform="translate(-273.671 -839.046)">
    <g id="Group_16983" data-name="Group 16983" transform="translate(275 840.375)">
      <path id="blob_3_" data-name="blob (3)" d="M98.906,22.072c0,27.708-41.638,65.561-74.04,65.561C-7.385,87.633-30.4,49.78-30.4,22.072S-7.385-23.2,24.865-23.2C57.267-23.2,98.906-5.636,98.906,22.072Z" transform="translate(30.4 45.449)" fill="#fcba06"/>
      <path id="blob_3_2" data-name="blob (3)" d="M129.306,45.272c0,27.708-41.638,65.561-74.04,65.561C23.015,110.833,0,72.98,0,45.272S23.015,0,55.265,0C87.667,0,129.306,17.564,129.306,45.272Z" transform="translate(46.84 0) rotate(25)" fill="none" stroke="#fff" stroke-width="2"/>
    </g>
    <g id="svgexport-6_-_2022-03-07T152848.902" data-name="svgexport-6 - 2022-03-07T152848.902" transform="translate(271.814 896.624)">
      <path id="Path_37544" data-name="Path 37544" d="M75.142,43.048a5.1,5.1,0,0,1-4.58-2.842l-2.535-4.747L66.587,38.2a1.677,1.677,0,0,1-.125.2,4.543,4.543,0,0,1-3.647,1.775h-.028a5.049,5.049,0,0,1-3.51-1.513,5.219,5.219,0,0,1-1.523-3.7V13.2a5.045,5.045,0,0,1,8.256-3.89l11.077,8.249a1.682,1.682,0,1,1-2.009,2.7L63.964,11.976q-.041-.031-.081-.064A1.682,1.682,0,0,0,61.117,13.2V34.97a1.83,1.83,0,0,0,1.693,1.85h.008a1.308,1.308,0,0,0,.866-.319l2.838-5.418a1.682,1.682,0,0,1,1.483-.9h.007a1.682,1.682,0,0,1,1.483.889l4.048,7.58q.017.032.033.065a1.723,1.723,0,0,0,2.267.815,1.716,1.716,0,0,0,.842-2.267L72.6,29.992a1.682,1.682,0,0,1,1.466-2.505H79.83a1.665,1.665,0,0,0,1.462-1.054,1.693,1.693,0,0,0-.328-1.828A1.682,1.682,0,1,1,83.411,22.3a5.08,5.08,0,0,1-3.482,8.551h-2.99l2.707,4.817c.017.03.032.06.047.09a5.071,5.071,0,0,1-4.552,7.291ZM59.655,6.6a1.682,1.682,0,0,0,.666-2.283L58.892,1.715a1.682,1.682,0,0,0-2.949,1.617l1.429,2.606a1.68,1.68,0,0,0,2.283.666ZM56.1,10.428a1.682,1.682,0,0,0-.867-2.215l-2.69-1.177a1.682,1.682,0,1,0-1.348,3.081l2.69,1.177a1.68,1.68,0,0,0,2.215-.867ZM66.58,4.989,67.5,2.214a1.682,1.682,0,1,0-3.19-1.063l-.925,2.775a1.682,1.682,0,1,0,3.19,1.063Zm4.45,4.267L73.3,7.574a1.682,1.682,0,0,0-2-2.7l-2.27,1.682a1.682,1.682,0,1,0,2,2.7ZM52.661,18.714l2.522-1.009a1.682,1.682,0,0,0-1.249-3.123l-2.522,1.009a1.682,1.682,0,1,0,1.249,3.123Z" fill="#fff"/>
    </g>
  </g>
</svg>
