<svg xmlns="http://www.w3.org/2000/svg" width="166.689" height="157.754" viewBox="0 0 166.689 157.754">
  <g id="Group_19938" data-name="Group 19938" transform="translate(-993.671 -2943.422)">
    <g id="Group_16983" data-name="Group 16983" transform="translate(995 2944.75)">
      <path id="blob_3_" data-name="blob (3)" d="M98.906,22.072c0,27.708-41.638,65.561-74.04,65.561C-7.385,87.633-30.4,49.78-30.4,22.072S-7.385-23.2,24.865-23.2C57.267-23.2,98.906-5.636,98.906,22.072Z" transform="translate(30.4 45.45)" fill="#f86e70"/>
      <path id="blob_3_2" data-name="blob (3)" d="M129.306,45.272c0,27.708-41.638,65.561-74.04,65.561C23.015,110.833,0,72.98,0,45.272S23.015,0,55.265,0C87.667,0,129.306,17.564,129.306,45.272Z" transform="translate(46.84 0) rotate(25)" fill="none" stroke="#fff" stroke-width="2"/>
    </g>
    <g id="svgexport-6_80_" data-name="svgexport-6 (80)" transform="translate(1028 2990)">
      <g id="Group_16990" data-name="Group 16990" transform="translate(0)">
        <path id="Path_37377" data-name="Path 37377" d="M59.313,3.9h-9.9A4.694,4.694,0,0,0,44.792,0H19.208a4.694,4.694,0,0,0-4.62,3.9h-9.9A4.693,4.693,0,0,0,0,8.585V46.04a4.693,4.693,0,0,0,4.688,4.688H25.534V55.3h-.081a5.491,5.491,0,0,0-5.484,5.484v1.667A1.545,1.545,0,0,0,21.512,64H42.488a1.545,1.545,0,0,0,1.544-1.544V60.789A5.49,5.49,0,0,0,38.548,55.3h-.081V50.727H49.6a.938.938,0,1,0,0-1.875H4.688A2.816,2.816,0,0,1,1.875,46.04V8.585A2.816,2.816,0,0,1,4.688,5.772h9.833V7.647H5.188A1.439,1.439,0,0,0,3.75,9.085V45.54a1.439,1.439,0,0,0,1.437,1.438H58.813A1.439,1.439,0,0,0,60.25,45.54V9.085a1.439,1.439,0,0,0-1.437-1.437H49.48V5.772h9.833a2.816,2.816,0,0,1,2.813,2.813V46.04a2.816,2.816,0,0,1-2.812,2.813H53.971a.938.938,0,0,0,0,1.875h5.341A4.693,4.693,0,0,0,64,46.04V8.585A4.693,4.693,0,0,0,59.313,3.9Zm-31.9,46.83h9.183V55.3H27.409Zm-.937,6.452H38.548a3.613,3.613,0,0,1,3.609,3.609v1.336H21.843V60.789a3.613,3.613,0,0,1,3.609-3.609h1.019ZM47.6,45.1H16.4V17.334a.937.937,0,0,0-1.875,0V45.1h-8.9V9.522h8.9v3.436a.937.937,0,1,0,1.875,0V4.687a2.816,2.816,0,0,1,2.813-2.812H44.792A2.816,2.816,0,0,1,47.6,4.687ZM58.375,9.523V45.1h-8.9V9.523ZM42.795,39.5H21.205a.938.938,0,0,0,0,1.875H42.795a.938.938,0,0,0,0-1.875Zm0-5.625H21.205a.938.938,0,0,0,0,1.875H42.795a.938.938,0,0,0,0-1.875Zm-4.5-21.35a2.836,2.836,0,0,0-3.917.131l-4.271,4.271-.53-.53A2.812,2.812,0,1,0,25.6,20.373l2.077,2.077a3.441,3.441,0,0,0,4.861,0L38.4,16.6a2.847,2.847,0,0,0-.1-4.07Zm-1.228,2.745-5.855,5.855a1.566,1.566,0,0,1-2.21,0l-2.077-2.077a.938.938,0,0,1,1.326-1.326l.928.928a1.312,1.312,0,0,0,1.856,0l4.669-4.668a.976.976,0,0,1,1.329-.07.946.946,0,0,1,.034,1.358ZM32,5.625a12,12,0,1,0,12,12A12.014,12.014,0,0,0,32,5.625ZM32,27.75A10.125,10.125,0,1,1,42.125,17.625,10.136,10.136,0,0,1,32,27.75Z" fill="#fff"/>
      </g>
    </g>
  </g>
</svg>
