<svg xmlns="http://www.w3.org/2000/svg" xmlns:xlink="http://www.w3.org/1999/xlink" width="122" height="104.571" viewBox="0 0 122 104.571">
  <defs>
    <linearGradient id="linear-gradient" x1="0.5" x2="0.5" y2="1" gradientUnits="objectBoundingBox">
      <stop offset="0" stop-color="#41a8de"/>
      <stop offset="1" stop-color="#007fff"/>
    </linearGradient>
  </defs>
  <g id="Group_19942" data-name="Group 19942" transform="translate(-1257 -3724)">
    <g id="Group_19913" data-name="Group 19913" transform="translate(358 10.285)">
      <path id="blob_3_" data-name="blob (3)" d="M91.6,19.514c0,26.143-39.286,61.857-69.857,61.857C-8.686,81.371-30.4,45.657-30.4,19.514S-8.686-23.2,21.743-23.2C52.314-23.2,91.6-6.629,91.6,19.514Z" transform="translate(929.4 3736.915)" fill="url(#linear-gradient)"/>
    </g>
    <g id="svgexport-6_-_2022-03-06T162904.238" data-name="svgexport-6 - 2022-03-06T162904.238" transform="translate(1285 3744)">
      <g id="Group_17084" data-name="Group 17084">
        <g id="Group_17083" data-name="Group 17083">
          <path id="Path_37541" data-name="Path 37541" d="M33,0A32.982,32.982,0,0,0,7.561,54c.012.016.013.037.026.053a32.991,32.991,0,0,0,12.461,9.3l.164.071c.386.163.777.314,1.168.461.154.058.308.118.464.174q.507.182,1.02.345c.219.07.438.14.659.206q.454.135.912.26c.268.073.539.14.81.2s.549.132.825.19c.308.066.619.124.932.182.251.046.5.095.753.135.347.056.7.1,1.045.145.225.029.45.062.676.086.4.042.8.071,1.2.1.186.013.371.033.558.043Q32.106,66,33,66c.6,0,1.186-.018,1.772-.048.187-.01.372-.03.558-.043.4-.029.8-.057,1.2-.1.227-.024.451-.057.676-.086.35-.045.7-.089,1.045-.145.252-.041.5-.089.754-.135.311-.057.623-.115.932-.181.276-.059.55-.124.825-.19s.541-.133.81-.2c.306-.081.609-.169.912-.26.221-.066.44-.135.659-.206q.513-.165,1.02-.345c.155-.056.309-.116.464-.174.393-.147.782-.3,1.168-.461l.164-.071a33,33,0,0,0,12.461-9.3c.013-.015.014-.037.026-.053A32.986,32.986,0,0,0,33,0ZM46.373,60.742l-.048.024c-.393.189-.792.367-1.195.541l-.273.117q-.528.221-1.067.421c-.15.056-.3.111-.45.164-.318.113-.637.222-.959.326-.2.064-.4.124-.6.184-.286.086-.573.168-.864.245-.244.065-.491.124-.737.183s-.516.124-.777.179c-.285.061-.572.112-.858.164-.232.043-.463.088-.7.125-.322.051-.648.091-.972.132-.206.026-.41.057-.618.079-.371.04-.745.065-1.118.091-.166.011-.331.03-.5.039Q33.821,63.8,33,63.8t-1.637-.044c-.167-.009-.332-.026-.5-.039-.374-.025-.747-.052-1.118-.091-.208-.022-.413-.053-.618-.079-.325-.041-.65-.081-.972-.132-.234-.037-.465-.083-.7-.125-.287-.052-.574-.1-.858-.164-.261-.055-.519-.118-.777-.179s-.493-.118-.737-.183c-.289-.077-.577-.161-.863-.245-.2-.059-.4-.12-.6-.184q-.483-.155-.959-.326c-.151-.054-.3-.109-.45-.164q-.538-.2-1.067-.421c-.091-.037-.18-.077-.272-.115-.4-.173-.8-.352-1.2-.541l-.048-.024A30.949,30.949,0,0,1,9.649,53.05,24.279,24.279,0,0,1,25.539,36.4c.153.094.312.177.47.265.092.052.184.107.277.156.328.174.66.337,1,.483.261.114.53.211.8.31l.158.058a14.039,14.039,0,0,0,9.514,0l.158-.058c.268-.1.538-.2.8-.31.34-.146.672-.309,1-.483.094-.051.185-.1.277-.156.157-.088.318-.172.472-.266A24.285,24.285,0,0,1,56.352,53.049,30.98,30.98,0,0,1,46.373,60.742ZM20.9,24.2A12.1,12.1,0,1,1,39.582,34.339a11.652,11.652,0,0,1-1.347.754c-.055.026-.109.054-.164.079a12.377,12.377,0,0,1-10.142,0c-.055-.025-.11-.053-.164-.079a11.562,11.562,0,0,1-1.347-.754A12.092,12.092,0,0,1,20.9,24.2ZM58,50.955A26.5,26.5,0,0,0,42.55,34.814a14.3,14.3,0,1,0-19.1,0A26.507,26.507,0,0,0,8,50.955,30.792,30.792,0,1,1,63.8,33,30.626,30.626,0,0,1,58,50.955Z" fill="#fff"/>
        </g>
      </g>
    </g>
  </g>
</svg>
